<svg width="506" height="70" viewBox="0 0 506 70" fill="none" xmlns="http://www.w3.org/2000/svg">
<path fill-rule="evenodd" clip-rule="evenodd" d="M32 2C32 0.895431 32.8954 0 34 0H36C37.1046 0 38 0.895431 38 2V9.86128C38 12.0498 41.0103 12.6485 41.8478 10.6266L44.8564 3.36316C45.2791 2.34267 46.449 1.85807 47.4695 2.28077L49.3173 3.04613C50.3378 3.46884 50.8224 4.63877 50.3997 5.65926L47.39 12.9253C46.5525 14.9472 49.1045 16.6524 50.652 15.1049L56.2127 9.5441C56.9938 8.76305 58.2601 8.76305 59.0412 9.5441L60.4554 10.9583C61.2364 11.7394 61.2364 13.0057 60.4554 13.7867L54.8971 19.345C53.3496 20.8925 55.0548 23.4445 57.0767 22.607L64.3391 19.5988C65.3595 19.1761 66.5295 19.6607 66.9522 20.6812L67.7175 22.529C68.1402 23.5494 67.6556 24.7194 66.6351 25.1421L59.368 28.1522C57.3461 28.9897 57.9449 32 60.1334 32H68C69.1046 32 70 32.8954 70 34V36C70 37.1046 69.1046 38 68 38H50.0833L19.9146 38H2C0.895431 38 0 37.1046 0 36V34C0 32.8954 0.89543 32 2 32H9.86463C12.0531 32 12.6519 28.9897 10.63 28.1522L3.36341 25.1423C2.34292 24.7196 1.85831 23.5497 2.28101 22.5292L3.04638 20.6814C3.46908 19.6609 4.63902 19.1763 5.65951 19.599L12.9229 22.6077C14.9448 23.4451 16.65 20.8932 15.1025 19.3457L9.5441 13.7873C8.76305 13.0062 8.76305 11.7399 9.5441 10.9588L10.9583 9.54462C11.7394 8.76357 13.0057 8.76357 13.7867 9.54462L19.3463 15.1042C20.8938 16.6517 23.4458 14.9465 22.6083 12.9246L19.5991 5.65967C19.1764 4.63918 19.661 3.46924 20.6814 3.04654L22.5292 2.28117C23.5497 1.85847 24.7196 2.34308 25.1423 3.36357L28.1522 10.6301C28.9897 12.652 32 12.0532 32 9.86476V2ZM3.44006 43C2.15151 43 1.19755 44.2023 1.58115 45.4324C1.83029 46.2313 2.10729 47.018 2.41101 47.7912C2.70166 48.5311 3.42608 49 4.22103 49H65.779C66.5739 49 67.2983 48.5311 67.589 47.7912C67.8927 47.018 68.1697 46.2313 68.4189 45.4324C68.8025 44.2023 67.8485 43 66.5599 43H3.44006ZM9.27916 54C7.6938 54 6.76226 55.7436 7.75845 56.9768C8.44387 57.8254 9.16813 58.6413 9.92853 59.4218C10.2938 59.7967 10.7982 60 11.3217 60H58.6783C59.2018 60 59.7062 59.7967 60.0715 59.4218C60.8319 58.6413 61.5561 57.8254 62.2416 56.9768C63.2377 55.7436 62.3062 54 60.7208 54H9.27916ZM35 70C39.0427 70 42.9253 69.3146 46.5379 68.0536C48.4512 67.3858 47.8701 65 45.8436 65H24.1564C22.13 65 21.5488 67.3858 23.4621 68.0536C27.0747 69.3146 30.9573 70 35 70Z" fill="#FFD701"/>
<path d="M129.198 45.3473L126.026 46.2623L134.444 22.4418C134.871 21.2218 135.359 20.3983 135.908 19.9713C136.477 19.524 137.26 19.3003 138.256 19.3003H150.822C151.432 19.3003 151.88 19.4325 152.164 19.6968C152.469 19.9408 152.622 20.2865 152.622 20.7338C152.622 21.1405 152.52 21.476 152.317 21.7403C152.113 21.9843 151.829 22.1775 151.463 22.3198L150.121 22.6858C149.551 22.8688 149.155 23.1331 148.931 23.4788C148.728 23.8245 148.647 24.3328 148.687 25.0038L150.853 56.4798C150.893 57.2118 151.015 57.71 151.219 57.9743C151.422 58.2386 151.778 58.4521 152.286 58.6148L153.628 58.9808C153.994 59.1028 154.269 59.296 154.452 59.5603C154.635 59.8043 154.726 60.1093 154.726 60.4753C154.726 60.9226 154.574 61.2886 154.269 61.5733C153.964 61.858 153.506 62.0003 152.896 62.0003H135.054C134.423 62.0003 133.956 61.8682 133.651 61.6038C133.366 61.3395 133.224 60.9938 133.224 60.5668C133.224 60.1805 133.305 59.8551 133.468 59.5908C133.651 59.3265 133.966 59.1231 134.413 58.9808L135.755 58.6148C136.345 58.4318 136.741 58.1878 136.945 57.8828C137.148 57.5778 137.229 57.1 137.189 56.4493L134.871 24.6378L137.677 24.1498L125.721 58.3098C125.294 59.4688 124.857 60.211 124.409 60.5363C123.982 60.8413 123.484 60.9938 122.915 60.9938C122.488 60.9938 122.091 60.943 121.725 60.8413C121.38 60.7193 121.054 60.4651 120.749 60.0788C120.444 59.6721 120.119 59.0418 119.773 58.1878L107.116 25.1868L109.8 24.3938L107.36 54.7108C107.278 55.7275 107.553 56.5611 108.183 57.2118C108.834 57.8421 109.657 58.3708 110.654 58.7978L111.416 59.1638C111.681 59.3061 111.884 59.4891 112.026 59.7128C112.169 59.9161 112.24 60.1805 112.24 60.5058C112.24 60.9532 112.097 61.3192 111.813 61.6038C111.528 61.8682 111.081 62.0003 110.471 62.0003H100.619C100.009 62.0003 99.5518 61.8682 99.2468 61.6038C98.9622 61.3395 98.8198 60.9938 98.8198 60.5668C98.8198 60.1195 98.9418 59.784 99.1858 59.5603C99.4298 59.3163 99.7348 59.1028 100.101 58.9198L100.711 58.6758C101.544 58.3505 102.266 57.8625 102.876 57.2118C103.486 56.5611 103.832 55.7071 103.913 54.6498L106.14 27.2303C106.262 25.7866 106.221 24.7191 106.018 24.0278C105.814 23.3365 105.387 22.8891 104.737 22.6858L103.425 22.3198C103.019 22.1571 102.714 21.9538 102.51 21.7098C102.307 21.4658 102.205 21.1405 102.205 20.7338C102.205 19.7781 102.815 19.3003 104.035 19.3003H116.693C117.587 19.3003 118.309 19.5036 118.858 19.9103C119.428 20.2966 119.936 21.0795 120.383 22.2588L129.198 45.3473Z" fill="#214BD8"/>
<path d="M187.11 44.6458C187.11 45.6421 186.836 46.425 186.287 46.9943C185.738 47.5433 184.945 47.8178 183.908 47.8178H165.455V45.4998H173.721C174.575 45.4998 175.002 45.083 175.002 44.2493C175.002 41.1383 174.676 38.922 174.026 37.6003C173.395 36.2583 172.623 35.5873 171.708 35.5873C171.057 35.5873 170.457 35.8618 169.908 36.4108C169.38 36.9598 168.953 37.8341 168.627 39.0338C168.322 40.2335 168.17 41.8195 168.17 43.7918C168.17 47.6551 169.003 50.4815 170.671 52.2708C172.338 54.0602 174.605 54.9548 177.472 54.9548C179.14 54.9548 180.573 54.66 181.773 54.0703C182.972 53.4806 183.918 52.5555 184.609 51.2948C184.996 50.9085 185.29 50.6543 185.494 50.5323C185.717 50.39 185.931 50.3188 186.134 50.3188C186.419 50.3188 186.632 50.4611 186.775 50.7458C186.917 51.0305 186.988 51.3863 186.988 51.8133C186.988 53.7856 186.378 55.6055 185.158 57.2728C183.959 58.9401 182.291 60.272 180.156 61.2683C178.042 62.2646 175.591 62.7628 172.806 62.7628C169.817 62.7628 167.143 62.163 164.784 60.9633C162.426 59.7433 160.565 58.0556 159.203 55.9003C157.84 53.7246 157.159 51.2033 157.159 48.3363C157.159 45.1033 157.8 42.3075 159.081 39.9488C160.362 37.5901 162.202 35.7601 164.601 34.4588C167.021 33.1575 169.918 32.5068 173.294 32.5068C176.283 32.5068 178.804 33.0355 180.858 34.0928C182.911 35.1501 184.467 36.5938 185.524 38.4238C186.582 40.2335 187.11 42.3075 187.11 44.6458Z" fill="#214BD8"/>
<path d="M210.641 57.4253L210.366 57.3643V23.7228C210.366 23.2348 210.295 22.8891 210.153 22.6858C210.011 22.4825 209.797 22.3401 209.512 22.2588L208.658 22.1368C208.333 22.0351 208.089 21.8928 207.926 21.7098C207.784 21.5268 207.713 21.2828 207.713 20.9778C207.713 20.6321 207.804 20.3678 207.987 20.1848C208.191 19.9815 208.547 19.7781 209.055 19.5748L217.503 16.7383C218.276 16.4536 218.886 16.2503 219.333 16.1283C219.781 16.0063 220.218 15.9453 220.645 15.9453C221.296 15.9453 221.784 16.1283 222.109 16.4943C222.455 16.8603 222.627 17.3178 222.627 17.8668V57.1508C222.627 57.8015 222.688 58.2691 222.81 58.5538C222.932 58.8385 223.136 59.0316 223.42 59.1333L224.274 59.4383C224.62 59.5806 224.864 59.7636 225.006 59.9873C225.169 60.1906 225.25 60.4346 225.25 60.7193C225.25 61.126 225.118 61.4411 224.854 61.6648C224.61 61.8885 224.203 62.0003 223.634 62.0003H214.27C213.315 62.0003 212.471 61.6546 211.739 60.9633C211.007 60.272 210.641 59.4485 210.641 58.4928V57.4253ZM189.718 48.6413C189.718 45.4083 190.358 42.582 191.639 40.1623C192.92 37.7426 194.669 35.8618 196.885 34.5198C199.122 33.1778 201.664 32.5068 204.51 32.5068C206.767 32.5068 208.679 32.944 210.244 33.8183C211.81 34.6926 213.142 36.0448 214.24 37.8748L211.8 39.4608C211.068 38.3018 210.336 37.4681 209.604 36.9598C208.892 36.4515 208.079 36.1973 207.164 36.1973C206.188 36.1973 205.334 36.543 204.602 37.2343C203.89 37.9256 203.331 39.0948 202.924 40.7418C202.538 42.3685 202.345 44.6051 202.345 47.4518C202.345 49.9935 202.538 52.0268 202.924 53.5518C203.311 55.0768 203.839 56.185 204.51 56.8763C205.181 57.5473 205.954 57.8828 206.828 57.8828C207.865 57.8828 208.811 57.5473 209.665 56.8763C210.519 56.185 211.322 55.1073 212.074 53.6433L213.66 55.1683C212.135 57.5676 210.427 59.4383 208.536 60.7803C206.645 62.102 204.48 62.7628 202.04 62.7628C199.641 62.7628 197.516 62.1833 195.665 61.0243C193.815 59.845 192.361 58.198 191.304 56.0833C190.247 53.9483 189.718 51.4676 189.718 48.6413Z" fill="#214BD8"/>
<path d="M242.58 34.3978V57.1508C242.58 57.8015 242.641 58.2691 242.763 58.5538C242.885 58.8385 243.088 59.0316 243.373 59.1333L244.197 59.4383C244.563 59.5806 244.817 59.7636 244.959 59.9873C245.122 60.1906 245.203 60.4346 245.203 60.7193C245.203 61.126 245.071 61.4411 244.807 61.6648C244.542 61.8885 244.136 62.0003 243.587 62.0003H229.313C228.743 62.0003 228.326 61.8885 228.062 61.6648C227.818 61.4411 227.696 61.126 227.696 60.7193C227.696 60.4346 227.767 60.1906 227.91 59.9873C228.072 59.7636 228.326 59.5806 228.672 59.4383L229.526 59.1333C229.811 59.0316 230.014 58.8385 230.136 58.5538C230.258 58.2691 230.319 57.8015 230.319 57.1508V40.2233C230.319 39.7556 230.248 39.4201 230.106 39.2168C229.963 38.9931 229.74 38.8508 229.435 38.7898L228.611 38.6678C228.265 38.5661 228.021 38.4238 227.879 38.2408C227.737 38.0375 227.666 37.7935 227.666 37.5088C227.666 37.1631 227.757 36.8886 227.94 36.6853C228.143 36.482 228.499 36.2888 229.008 36.1058L237.456 33.2693C238.249 32.9846 238.869 32.7813 239.317 32.6593C239.764 32.5373 240.171 32.4763 240.537 32.4763C241.208 32.4763 241.716 32.6593 242.062 33.0253C242.407 33.3913 242.58 33.8488 242.58 34.3978ZM235.962 30.1278C233.827 30.1278 232.129 29.5788 230.868 28.4808C229.607 27.3625 228.977 25.9188 228.977 24.1498C228.977 22.3605 229.607 20.927 230.868 19.8493C232.129 18.7513 233.827 18.2023 235.962 18.2023C238.097 18.2023 239.794 18.7513 241.055 19.8493C242.336 20.927 242.977 22.3605 242.977 24.1498C242.977 25.9188 242.336 27.3625 241.055 28.4808C239.794 29.5788 238.097 30.1278 235.962 30.1278Z" fill="#214BD8"/>
<path d="M276.386 41.4738C276.386 42.9988 275.847 44.2696 274.77 45.2863C273.712 46.303 272.279 46.8113 270.469 46.8113C268.68 46.8113 267.317 46.3233 266.382 45.3473C265.467 44.351 265.01 43.0293 265.01 41.3823V39.6743C265.01 38.3933 264.755 37.397 264.247 36.6853C263.759 35.9736 263.108 35.6178 262.295 35.6178C261.583 35.6178 260.933 35.9126 260.343 36.5023C259.753 37.092 259.286 37.9765 258.94 39.1558C258.594 40.3351 258.422 41.8093 258.422 43.5783C258.422 46.0183 258.798 48.072 259.55 49.7393C260.323 51.3863 261.37 52.6368 262.692 53.4908C264.034 54.3245 265.559 54.7413 267.267 54.7413C268.751 54.7413 270.042 54.5278 271.14 54.1008C272.258 53.6535 273.214 52.8808 274.007 51.7828C274.393 51.4168 274.688 51.1728 274.892 51.0508C275.115 50.9085 275.339 50.8373 275.563 50.8373C275.847 50.8373 276.051 50.9796 276.173 51.2643C276.315 51.549 276.386 51.9048 276.386 52.3318C276.264 54.2838 275.603 56.0528 274.404 57.6388C273.224 59.2248 271.618 60.4753 269.585 61.3903C267.551 62.3053 265.203 62.7628 262.539 62.7628C259.631 62.7628 257.029 62.1935 254.731 61.0548C252.454 59.8958 250.644 58.2488 249.302 56.1138C247.98 53.9788 247.32 51.4371 247.32 48.4888C247.32 45.3981 247.991 42.6531 249.333 40.2538C250.695 37.8545 252.586 35.9635 255.006 34.5808C257.446 33.1981 260.292 32.5068 263.546 32.5068C266.25 32.5068 268.558 32.9033 270.469 33.6963C272.38 34.4893 273.844 35.567 274.861 36.9293C275.878 38.2713 276.386 39.7861 276.386 41.4738Z" fill="#214BD8"/>
<path d="M296.852 58.2793V57.6998L296.029 57.8523V37.2343C296.029 36.482 295.825 35.8821 295.419 35.4348C295.032 34.9875 294.504 34.7638 293.833 34.7638C293.263 34.7638 292.775 34.9163 292.369 35.2213C291.962 35.5263 291.759 35.9533 291.759 36.5023V39.7963C291.759 41.3823 291.199 42.6633 290.081 43.6393C288.963 44.595 287.407 45.0728 285.415 45.0728C283.808 45.0728 282.578 44.7068 281.724 43.9748C280.89 43.2428 280.474 42.1956 280.474 40.8333C280.474 39.5726 281.043 38.3018 282.182 37.0208C283.32 35.7398 285.028 34.6825 287.306 33.8488C289.583 32.9948 292.43 32.5678 295.846 32.5678C300.014 32.5678 303.115 33.3405 305.148 34.8858C307.202 36.4311 308.229 38.5865 308.229 41.3518V56.1138C308.229 56.5408 308.33 56.8763 308.534 57.1203C308.737 57.3643 309.022 57.4863 309.388 57.4863C309.713 57.4863 309.998 57.3846 310.242 57.1813C310.486 56.978 310.679 56.7137 310.821 56.3883C310.923 56.246 311.024 56.1443 311.126 56.0833C311.248 56.002 311.38 55.9613 311.523 55.9613C311.767 55.9613 311.939 56.0528 312.041 56.2358C312.163 56.3985 312.224 56.6221 312.224 56.9068C312.224 57.6591 311.929 58.4928 311.34 59.4078C310.75 60.3228 309.835 61.1158 308.595 61.7868C307.375 62.4375 305.809 62.7628 303.898 62.7628C301.702 62.7628 299.973 62.3358 298.713 61.4818C297.472 60.6278 296.852 59.5603 296.852 58.2793ZM279.162 55.6563C279.162 52.9723 280.341 50.8678 282.7 49.3428C285.059 47.7975 288.566 47.0248 293.223 47.0248C294.321 47.0248 295.246 47.1163 295.998 47.2993C296.771 47.462 297.421 47.706 297.95 48.0313L297.157 49.8308C296.71 49.5665 296.283 49.3835 295.876 49.2818C295.49 49.1801 295.053 49.1293 294.565 49.1293C293.609 49.1293 292.846 49.5156 292.277 50.2883C291.728 51.0406 291.454 52.159 291.454 53.6433C291.454 55.1276 291.728 56.2358 292.277 56.9678C292.846 57.6998 293.589 58.0658 294.504 58.0658C295.032 58.0658 295.551 57.9133 296.059 57.6083C296.567 57.3033 296.964 56.9475 297.249 56.5408L297.859 58.2183C296.944 59.6823 295.602 60.8108 293.833 61.6038C292.084 62.3765 290.203 62.7628 288.19 62.7628C285.506 62.7628 283.33 62.0918 281.663 60.7498C279.996 59.3875 279.162 57.6896 279.162 55.6563Z" fill="#214BD8"/>
<path d="M328.81 17.8668V57.1508C328.81 57.8015 328.871 58.2691 328.993 58.5538C329.115 58.8385 329.319 59.0316 329.603 59.1333L330.457 59.4383C330.803 59.5806 331.047 59.7636 331.189 59.9873C331.352 60.1906 331.433 60.4346 331.433 60.7193C331.433 61.126 331.301 61.4411 331.037 61.6648C330.793 61.8885 330.386 62.0003 329.817 62.0003H315.543C314.994 62.0003 314.587 61.8885 314.323 61.6648C314.058 61.4411 313.926 61.126 313.926 60.7193C313.926 60.4346 313.997 60.1906 314.14 59.9873C314.302 59.7636 314.557 59.5806 314.902 59.4383L315.756 59.1333C316.061 59.0316 316.265 58.8385 316.366 58.5538C316.488 58.2691 316.549 57.8015 316.549 57.1508V23.7228C316.549 23.2348 316.478 22.8891 316.336 22.6858C316.193 22.4825 315.98 22.3401 315.695 22.2588L314.841 22.1368C314.516 22.0351 314.282 21.8928 314.14 21.7098C313.997 21.5268 313.926 21.2828 313.926 20.9778C313.926 20.6321 314.018 20.3678 314.201 20.1848C314.404 19.9815 314.76 19.7781 315.268 19.5748L323.686 16.7383C324.5 16.4536 325.12 16.2503 325.547 16.1283C325.994 16.0063 326.401 15.9453 326.767 15.9453C327.458 15.9453 327.966 16.1283 328.292 16.4943C328.637 16.8603 328.81 17.3178 328.81 17.8668Z" fill="#214BD8"/>
<path d="M388.752 34.3978C388.752 36.3091 388.305 38.0578 387.41 39.6438C386.515 41.2298 385.234 42.5616 383.567 43.6393C381.9 44.717 379.897 45.4693 377.558 45.8963C376.664 46.0386 375.84 46.2013 375.088 46.3843C374.336 46.5673 373.573 46.73 372.8 46.8723C372.028 46.9943 371.164 47.0553 370.208 47.0553C368.764 47.0553 367.493 46.9638 366.395 46.7808C365.318 46.5775 364.362 46.303 363.528 45.9573C362.695 45.6116 361.922 45.205 361.21 44.7373L361.363 42.0228C361.932 42.4498 362.502 42.8056 363.071 43.0903C363.661 43.3546 364.301 43.558 364.992 43.7003C365.684 43.8223 366.467 43.8833 367.341 43.8833C369.659 43.8833 371.469 43.1716 372.77 41.7483C374.092 40.325 374.752 38.0476 374.752 34.9163C374.752 32.4356 374.325 30.2396 373.471 28.3283C372.638 26.3966 371.499 24.8818 370.055 23.7838C368.632 22.6858 367.036 22.1368 365.267 22.1368H364.047V56.7543C364.047 57.2423 364.149 57.6286 364.352 57.9133C364.555 58.198 364.891 58.4318 365.358 58.6148L366.487 58.9808C366.975 59.1841 367.3 59.4078 367.463 59.6518C367.626 59.8755 367.707 60.1805 367.707 60.5668C367.707 61.5225 367.097 62.0003 365.877 62.0003H348.065C347.435 62.0003 346.967 61.8682 346.662 61.6038C346.377 61.3395 346.235 60.9938 346.235 60.5668C346.235 59.7941 346.631 59.2655 347.424 58.9808L348.766 58.6148C349.295 58.4318 349.681 58.198 349.925 57.9133C350.169 57.6286 350.291 57.2423 350.291 56.7543V24.3328C350.291 23.9058 350.159 23.5703 349.895 23.3263C349.651 23.062 349.275 22.8485 348.766 22.6858L347.424 22.3198C346.631 22.0351 346.235 21.5065 346.235 20.7338C346.235 20.2865 346.377 19.9408 346.662 19.6968C346.967 19.4325 347.435 19.3003 348.065 19.3003H365.633C370.513 19.3003 374.681 19.9306 378.138 21.1913C381.595 22.452 384.228 24.2108 386.037 26.4678C387.847 28.7248 388.752 31.3681 388.752 34.3978ZM367.798 45.7133L380.913 44.2493L388.325 56.9983C388.65 57.5676 388.955 58.0048 389.24 58.3098C389.525 58.5945 389.901 58.8385 390.368 59.0418C390.755 59.2045 391.039 59.4078 391.222 59.6518C391.405 59.8755 391.497 60.1805 391.497 60.5668C391.497 60.9938 391.344 61.3395 391.039 61.6038C390.734 61.8682 390.267 62.0003 389.636 62.0003H373.654C372.495 62.0003 371.916 61.5225 371.916 60.5668C371.916 60.3228 371.967 60.1195 372.068 59.9568C372.19 59.7738 372.384 59.601 372.648 59.4383L373.166 59.1333C373.593 58.869 373.858 58.6047 373.959 58.3403C374.061 58.076 373.959 57.649 373.654 57.0593L367.798 45.7133Z" fill="#214BD8"/>
<path d="M411.406 58.2793V57.6998L410.582 57.8523V37.2343C410.582 36.482 410.379 35.8821 409.972 35.4348C409.586 34.9875 409.057 34.7638 408.386 34.7638C407.817 34.7638 407.329 34.9163 406.922 35.2213C406.516 35.5263 406.312 35.9533 406.312 36.5023V39.7963C406.312 41.3823 405.753 42.6633 404.635 43.6393C403.516 44.595 401.961 45.0728 399.968 45.0728C398.362 45.0728 397.132 44.7068 396.278 43.9748C395.444 43.2428 395.027 42.1956 395.027 40.8333C395.027 39.5726 395.597 38.3018 396.735 37.0208C397.874 35.7398 399.582 34.6825 401.859 33.8488C404.137 32.9948 406.983 32.5678 410.399 32.5678C414.568 32.5678 417.668 33.3405 419.702 34.8858C421.755 36.4311 422.782 38.5865 422.782 41.3518V56.1138C422.782 56.5408 422.884 56.8763 423.087 57.1203C423.291 57.3643 423.575 57.4863 423.941 57.4863C424.267 57.4863 424.551 57.3846 424.795 57.1813C425.039 56.978 425.232 56.7137 425.375 56.3883C425.476 56.246 425.578 56.1443 425.68 56.0833C425.802 56.002 425.934 55.9613 426.076 55.9613C426.32 55.9613 426.493 56.0528 426.595 56.2358C426.717 56.3985 426.778 56.6221 426.778 56.9068C426.778 57.6591 426.483 58.4928 425.893 59.4078C425.304 60.3228 424.389 61.1158 423.148 61.7868C421.928 62.4375 420.363 62.7628 418.451 62.7628C416.255 62.7628 414.527 62.3358 413.266 61.4818C412.026 60.6278 411.406 59.5603 411.406 58.2793ZM393.716 55.6563C393.716 52.9723 394.895 50.8678 397.254 49.3428C399.612 47.7975 403.12 47.0248 407.776 47.0248C408.874 47.0248 409.799 47.1163 410.552 47.2993C411.324 47.462 411.975 47.706 412.504 48.0313L411.711 49.8308C411.263 49.5665 410.836 49.3835 410.43 49.2818C410.043 49.1801 409.606 49.1293 409.118 49.1293C408.163 49.1293 407.4 49.5156 406.831 50.2883C406.282 51.0406 406.007 52.159 406.007 53.6433C406.007 55.1276 406.282 56.2358 406.831 56.9678C407.4 57.6998 408.142 58.0658 409.057 58.0658C409.586 58.0658 410.104 57.9133 410.613 57.6083C411.121 57.3033 411.518 56.9475 411.802 56.5408L412.412 58.2183C411.497 59.6823 410.155 60.8108 408.386 61.6038C406.638 62.3765 404.757 62.7628 402.744 62.7628C400.06 62.7628 397.884 62.0918 396.217 60.7498C394.549 59.3875 393.716 57.6896 393.716 55.6563Z" fill="#214BD8"/>
<path d="M443.273 34.3978V57.1508C443.273 57.8015 443.334 58.2691 443.456 58.5538C443.578 58.8181 443.781 59.0113 444.066 59.1333L444.859 59.4688C445.387 59.7331 445.652 60.1297 445.652 60.6583C445.652 61.553 445.103 62.0003 444.005 62.0003H430.005C429.436 62.0003 429.019 61.8885 428.755 61.6648C428.511 61.4411 428.389 61.126 428.389 60.7193C428.389 60.4346 428.46 60.1906 428.602 59.9873C428.765 59.7636 429.019 59.5806 429.365 59.4383L430.219 59.1333C430.503 59.0316 430.707 58.8385 430.829 58.5538C430.951 58.2691 431.012 57.8015 431.012 57.1508V40.2233C431.012 39.7556 430.94 39.4201 430.798 39.2168C430.656 38.9931 430.432 38.8508 430.127 38.7898L429.304 38.6678C428.958 38.5661 428.714 38.4238 428.572 38.2408C428.429 38.0375 428.358 37.7935 428.358 37.5088C428.358 37.1631 428.45 36.8886 428.633 36.6853C428.836 36.482 429.192 36.2888 429.7 36.1058L438.149 33.2693C438.901 32.9846 439.501 32.7813 439.948 32.6593C440.416 32.5373 440.863 32.4763 441.29 32.4763C441.941 32.4763 442.429 32.6593 442.754 33.0253C443.1 33.3913 443.273 33.8488 443.273 34.3978ZM442.236 41.6568L440.894 40.2233L441.931 39.3083C444.533 36.9293 446.79 35.201 448.702 34.1233C450.613 33.0456 452.362 32.5068 453.948 32.5068C456.306 32.5068 458.146 33.2795 459.468 34.8248C460.79 36.3498 461.583 38.4543 461.847 41.1383L463.464 57.1508C463.525 57.8015 463.596 58.2691 463.677 58.5538C463.758 58.8385 463.952 59.0316 464.257 59.1333L465.08 59.4383C465.446 59.5806 465.7 59.7636 465.843 59.9873C465.985 60.1906 466.056 60.4346 466.056 60.7193C466.056 61.126 465.924 61.4411 465.66 61.6648C465.416 61.8885 465.009 62.0003 464.44 62.0003H450.257C449.159 62.0003 448.61 61.553 448.61 60.6583C448.61 60.1297 448.874 59.7331 449.403 59.4688L450.196 59.1333C450.501 59.0113 450.725 58.8181 450.867 58.5538C451.009 58.2691 451.05 57.8015 450.989 57.1508L449.678 42.7548C449.556 41.5551 449.271 40.6605 448.824 40.0708C448.397 39.4811 447.726 39.1863 446.811 39.1863C446.221 39.1863 445.621 39.3286 445.011 39.6133C444.421 39.8776 443.862 40.2436 443.334 40.7113L442.236 41.6568Z" fill="#214BD8"/>
<path d="M469.202 62.0003C468.633 62.0003 468.216 61.8885 467.952 61.6648C467.708 61.4411 467.586 61.126 467.586 60.7193C467.586 60.4346 467.657 60.1906 467.799 59.9873C467.962 59.7636 468.216 59.5806 468.562 59.4383L469.416 59.1333C469.7 59.0316 469.904 58.8385 470.026 58.5538C470.148 58.2691 470.209 57.8015 470.209 57.1508V23.7228C470.209 23.2348 470.138 22.8891 469.995 22.6858C469.853 22.4825 469.629 22.3401 469.324 22.2588L468.501 22.1368C468.155 22.0351 467.911 21.8928 467.769 21.7098C467.626 21.5268 467.555 21.2828 467.555 20.9778C467.555 20.6321 467.647 20.3678 467.83 20.1848C468.033 19.9815 468.389 19.7781 468.897 19.5748L477.346 16.7383C478.098 16.4536 478.698 16.2503 479.145 16.1283C479.613 16.0063 480.06 15.9453 480.487 15.9453C481.138 15.9453 481.626 16.1283 481.951 16.4943C482.297 16.8603 482.47 17.3178 482.47 17.8668V57.1508C482.47 57.8015 482.531 58.2691 482.653 58.5538C482.775 58.8181 482.978 59.0113 483.263 59.1333L484.056 59.4688C484.584 59.7331 484.849 60.1297 484.849 60.6583C484.849 61.553 484.3 62.0003 483.202 62.0003H469.202ZM479.481 49.7393L490.857 39.8573C491.671 39.1253 491.986 38.3933 491.803 37.6613C491.64 36.9293 491.071 36.4006 490.095 36.0753L489.18 35.7703C488.875 35.628 488.661 35.4653 488.539 35.2823C488.417 35.0993 488.356 34.8756 488.356 34.6113C488.356 34.2046 488.499 33.8895 488.783 33.6658C489.068 33.4421 489.444 33.3303 489.912 33.3303H502.295C502.783 33.3303 503.159 33.4421 503.423 33.6658C503.708 33.8691 503.85 34.164 503.85 34.5503C503.85 34.9163 503.738 35.2213 503.515 35.4653C503.291 35.7093 502.813 35.933 502.081 36.1363C500.719 36.482 499.448 36.9903 498.269 37.6613C497.089 38.312 495.808 39.2371 494.426 40.4368L480.67 52.0573L479.481 49.7393ZM491.437 40.3758L502.356 57.6693C502.62 58.076 502.874 58.4013 503.118 58.6453C503.362 58.869 503.657 59.0926 504.003 59.3163C504.348 59.5603 504.613 59.8043 504.796 60.0483C504.999 60.2923 505.101 60.5566 505.101 60.8413C505.101 61.187 504.958 61.4716 504.674 61.6953C504.409 61.8986 504.043 62.0003 503.576 62.0003H488.448C488.041 62.0003 487.706 61.8885 487.441 61.6648C487.197 61.4411 487.075 61.1362 487.075 60.7498C487.075 60.5058 487.126 60.3025 487.228 60.1398C487.35 59.9568 487.533 59.7942 487.777 59.6518L488.57 59.3468C488.936 59.1842 489.149 58.9706 489.21 58.7063C489.271 58.4216 489.119 57.9946 488.753 57.4253L483.202 48.1838L491.437 40.3758Z" fill="#214BD8"/>
</svg>
