<svg width="731" height="471" viewBox="0 0 731 471" fill="none" xmlns="http://www.w3.org/2000/svg">
<g filter="url(#filter0_f_929_45)">
<path d="M168.081 436.879V303.916H34L168.081 436.879Z" fill="url(#paint0_linear_929_45)"/>
</g>
<g filter="url(#filter1_f_929_45)">
<path d="M696.024 298.888L563.061 298.888L563.061 432.969L696.024 298.888Z" fill="url(#paint1_linear_929_45)"/>
</g>
<g filter="url(#filter2_d_929_45)">
<g clip-path="url(#clip0_929_45)">
<rect x="152" width="429" height="429" rx="5" fill="white"/>
<g filter="url(#filter3_d_929_45)">
<circle cx="367" cy="215" r="325" fill="#183ECB"/>
</g>
<g filter="url(#filter4_d_929_45)">
<circle cx="367" cy="215" r="275" fill="#183ECB"/>
</g>
<g filter="url(#filter5_d_929_45)">
<circle cx="367" cy="215" r="225" fill="#183ECB"/>
</g>
<g filter="url(#filter6_d_929_45)">
<circle cx="367" cy="215" r="175" fill="#183ECB"/>
</g>
<g filter="url(#filter7_d_929_45)">
<circle cx="367" cy="215" r="125" fill="#183ECB"/>
</g>
<g filter="url(#filter8_d_929_45)">
<circle cx="367" cy="215" r="75" fill="#183ECB"/>
</g>
<g filter="url(#filter9_d_929_45)">
<circle cx="367" cy="215" r="25" fill="#183ECB"/>
</g>
<path d="M351.229 331.514C351.229 330.678 351.907 330 352.743 330H354.257C355.093 330 355.771 330.678 355.771 331.514V337.466C355.771 339.123 358.051 339.577 358.685 338.046L360.963 332.546C361.283 331.774 362.169 331.407 362.941 331.727L364.34 332.306C365.113 332.626 365.48 333.512 365.16 334.285L362.881 339.786C362.247 341.317 364.179 342.608 365.351 341.437L369.561 337.226C370.152 336.635 371.111 336.635 371.703 337.226L372.773 338.297C373.365 338.888 373.365 339.847 372.773 340.439L368.565 344.647C367.393 345.819 368.684 347.751 370.215 347.117L375.714 344.839C376.487 344.519 377.372 344.886 377.692 345.659L378.272 347.058C378.592 347.83 378.225 348.716 377.452 349.036L371.95 351.315C370.419 351.949 370.873 354.229 372.53 354.229H378.486C379.322 354.229 380 354.907 380 355.743V357.257C380 358.093 379.322 358.771 378.486 358.771L328.514 358.771C327.678 358.771 327 358.093 327 357.257V355.743C327 354.907 327.678 354.229 328.514 354.229H334.469C336.126 354.229 336.579 351.949 335.048 351.315L329.547 349.036C328.774 348.716 328.407 347.83 328.727 347.058L329.307 345.659C329.627 344.886 330.512 344.519 331.285 344.839L336.785 347.117C338.315 347.751 339.606 345.819 338.435 344.647L334.226 340.439C333.635 339.848 333.635 338.889 334.226 338.297L335.297 337.227C335.888 336.635 336.847 336.635 337.439 337.227L341.648 341.436C342.82 342.608 344.752 341.317 344.118 339.786L341.839 334.285C341.519 333.513 341.886 332.627 342.659 332.307L344.058 331.727C344.83 331.407 345.716 331.774 346.036 332.547L348.315 338.049C348.949 339.579 351.229 339.126 351.229 337.469V331.514Z" fill="#FFD600"/>
<path d="M329.605 362.557C328.629 362.557 327.907 363.467 328.197 364.399C328.386 365.004 328.596 365.599 328.825 366.185C329.046 366.745 329.594 367.1 330.196 367.1H376.804C377.406 367.1 377.954 366.745 378.175 366.185C378.404 365.599 378.614 365.004 378.803 364.399C379.093 363.467 378.371 362.557 377.395 362.557H329.605Z" fill="#FFD600"/>
<path d="M334.026 370.886C332.825 370.886 332.12 372.206 332.874 373.14C333.393 373.782 333.942 374.4 334.517 374.991C334.794 375.275 335.176 375.429 335.572 375.429H371.428C371.824 375.429 372.206 375.275 372.483 374.991C373.058 374.4 373.607 373.782 374.126 373.14C374.88 372.206 374.175 370.886 372.974 370.886H334.026Z" fill="#FFD600"/>
<path d="M353.5 383C356.561 383 359.501 382.481 362.236 381.526C363.684 381.021 363.244 379.214 361.71 379.214H345.29C343.756 379.214 343.316 381.021 344.764 381.526C347.499 382.481 350.439 383 353.5 383Z" fill="#FFD600"/>
<g filter="url(#filter10_d_929_45)">
<path d="M198.966 174.8H224.706C225.454 174.8 226.103 174.723 226.653 174.569C227.203 174.393 227.687 174.228 228.105 174.074C228.523 173.898 228.908 173.81 229.26 173.81C229.832 173.81 230.261 173.953 230.547 174.239C230.833 174.525 231.075 175.053 231.273 175.823L233.385 187.802C233.495 188.33 233.462 188.748 233.286 189.056C233.11 189.364 232.813 189.562 232.395 189.65C231.999 189.738 231.647 189.716 231.339 189.584C231.031 189.43 230.767 189.133 230.547 188.693C229.139 185.635 227.896 183.314 226.818 181.73C225.762 180.146 224.75 179.068 223.782 178.496C222.836 177.924 221.835 177.638 220.779 177.638H218.04V216.38C218.04 216.798 218.172 217.139 218.436 217.403C218.7 217.645 219.085 217.843 219.591 217.997L221.439 218.426C222.187 218.668 222.561 219.119 222.561 219.779C222.561 220.593 222.022 221 220.944 221H202.761C202.233 221 201.837 220.89 201.573 220.67C201.309 220.428 201.177 220.131 201.177 219.779C201.177 219.119 201.551 218.668 202.299 218.426L204.147 217.997C204.653 217.843 205.038 217.645 205.302 217.403C205.566 217.139 205.698 216.798 205.698 216.38V177.638H202.926C201.914 177.638 200.935 177.946 199.989 178.562C199.043 179.156 198.02 180.245 196.92 181.829C195.842 183.413 194.588 185.701 193.158 188.693C192.96 189.133 192.696 189.43 192.366 189.584C192.058 189.716 191.717 189.738 191.343 189.65C190.925 189.562 190.628 189.364 190.452 189.056C190.298 188.748 190.265 188.33 190.353 187.802L192.465 175.823C192.641 175.053 192.872 174.525 193.158 174.239C193.466 173.953 193.906 173.81 194.478 173.81C194.83 173.81 195.204 173.898 195.6 174.074C196.018 174.228 196.491 174.393 197.019 174.569C197.569 174.723 198.218 174.8 198.966 174.8Z" fill="#4B6FF7"/>
<path d="M250.569 173.282V216.545C250.569 217.139 250.646 217.579 250.8 217.865C250.954 218.129 251.196 218.316 251.526 218.426L252.681 218.789C253.209 219.009 253.473 219.361 253.473 219.845C253.473 220.615 252.989 221 252.021 221H237.93C237.446 221 237.083 220.901 236.841 220.703C236.621 220.505 236.511 220.241 236.511 219.911C236.511 219.647 236.588 219.416 236.742 219.218C236.896 219.02 237.138 218.866 237.468 218.756L238.689 218.426C239.019 218.316 239.25 218.129 239.382 217.865C239.536 217.579 239.613 217.139 239.613 216.545V178.661C239.613 178.221 239.547 177.913 239.415 177.737C239.283 177.539 239.063 177.407 238.755 177.341L237.336 177.242C237.028 177.154 236.797 177.033 236.643 176.879C236.511 176.703 236.445 176.494 236.445 176.252C236.445 175.944 236.533 175.702 236.709 175.526C236.885 175.35 237.204 175.174 237.666 174.998L246.081 172.259C246.763 172.017 247.302 171.841 247.698 171.731C248.094 171.621 248.479 171.566 248.853 171.566C249.425 171.566 249.854 171.731 250.14 172.061C250.426 172.369 250.569 172.776 250.569 173.282ZM249.579 198.725L248.391 197.471L249.546 196.382C252.208 193.984 254.507 192.257 256.443 191.201C258.401 190.123 260.205 189.584 261.855 189.584C264.341 189.584 266.266 190.387 267.63 191.993C269.016 193.599 269.863 195.843 270.171 198.725L272.085 216.479C272.151 217.095 272.25 217.557 272.382 217.865C272.514 218.151 272.756 218.349 273.108 218.459L274.23 218.756C274.56 218.888 274.802 219.053 274.956 219.251C275.11 219.427 275.187 219.647 275.187 219.911C275.187 220.241 275.066 220.505 274.824 220.703C274.604 220.901 274.252 221 273.768 221H259.446C258.5 221 258.027 220.615 258.027 219.845C258.027 219.361 258.291 219.009 258.819 218.789L260.007 218.426C260.359 218.316 260.623 218.118 260.799 217.832C260.975 217.524 261.03 217.073 260.964 216.479L259.281 200.144C259.127 198.56 258.753 197.394 258.159 196.646C257.587 195.876 256.707 195.491 255.519 195.491C254.749 195.491 253.968 195.678 253.176 196.052C252.406 196.426 251.614 196.965 250.8 197.669L249.579 198.725Z" fill="#4B6FF7"/>
<path d="M307.478 202.421C307.478 203.323 307.225 204.027 306.719 204.533C306.213 205.039 305.465 205.292 304.475 205.292H284.213V203.213H295.301C296.159 203.213 296.588 202.795 296.588 201.959C296.588 198.593 296.148 196.129 295.268 194.567C294.388 193.005 293.288 192.224 291.968 192.224C290.956 192.224 290.054 192.587 289.262 193.313C288.492 194.017 287.876 195.106 287.414 196.58C286.974 198.054 286.754 199.924 286.754 202.19C286.754 206.502 287.7 209.692 289.592 211.76C291.484 213.806 294.003 214.829 297.149 214.829C299.107 214.829 300.79 214.422 302.198 213.608C303.628 212.772 304.651 211.573 305.267 210.011C305.575 209.681 305.817 209.461 305.993 209.351C306.191 209.219 306.389 209.153 306.587 209.153C306.829 209.153 307.016 209.274 307.148 209.516C307.28 209.758 307.346 210.066 307.346 210.44C307.302 212.508 306.653 214.411 305.399 216.149C304.145 217.865 302.44 219.24 300.284 220.274C298.15 221.286 295.697 221.792 292.925 221.792C289.823 221.792 287.062 221.154 284.642 219.878C282.222 218.58 280.319 216.776 278.933 214.466C277.547 212.134 276.854 209.428 276.854 206.348C276.854 202.982 277.514 200.045 278.834 197.537C280.154 195.029 282.046 193.071 284.51 191.663C286.996 190.255 289.955 189.551 293.387 189.551C296.379 189.551 298.92 190.112 301.01 191.234C303.1 192.334 304.695 193.852 305.795 195.788C306.917 197.724 307.478 199.935 307.478 202.421Z" fill="#4B6FF7"/>
<path d="M366.394 192.158C366.394 195.062 365.657 197.592 364.183 199.748C362.731 201.882 360.663 203.532 357.979 204.698C355.317 205.864 352.182 206.447 348.574 206.447C346 206.447 343.756 206.172 341.842 205.622C339.928 205.05 338.212 204.258 336.694 203.246L337.024 200.903C337.926 201.519 338.795 202.025 339.631 202.421C340.489 202.817 341.358 203.103 342.238 203.279C343.118 203.455 344.053 203.543 345.043 203.543C346.759 203.543 348.321 203.114 349.729 202.256C351.159 201.376 352.292 200.067 353.128 198.329C353.986 196.591 354.415 194.435 354.415 191.861C354.415 188.847 353.92 186.273 352.93 184.139C351.94 181.983 350.587 180.333 348.871 179.189C347.177 178.045 345.241 177.473 343.063 177.473H341.215V216.38C341.215 216.798 341.336 217.15 341.578 217.436C341.82 217.7 342.216 217.887 342.766 217.997L345.175 218.393C345.615 218.481 345.923 218.635 346.099 218.855C346.297 219.075 346.396 219.383 346.396 219.779C346.396 220.131 346.264 220.428 346 220.67C345.758 220.89 345.362 221 344.812 221H325.969C325.419 221 325.012 220.89 324.748 220.67C324.484 220.428 324.352 220.12 324.352 219.746C324.352 219.108 324.726 218.668 325.474 218.426L327.355 217.997C327.883 217.843 328.268 217.645 328.51 217.403C328.752 217.139 328.873 216.798 328.873 216.38V179.486C328.873 179.046 328.752 178.694 328.51 178.43C328.268 178.166 327.894 177.957 327.388 177.803L325.441 177.374C324.715 177.132 324.352 176.692 324.352 176.054C324.352 175.658 324.484 175.35 324.748 175.13C325.012 174.91 325.419 174.8 325.969 174.8H343.261C348.079 174.8 352.215 175.537 355.669 177.011C359.123 178.485 361.774 180.531 363.622 183.149C365.47 185.745 366.394 188.748 366.394 192.158Z" fill="#4B6FF7"/>
<path d="M377.888 174.8H403.628C404.376 174.8 405.025 174.723 405.575 174.569C406.125 174.393 406.609 174.228 407.027 174.074C407.445 173.898 407.83 173.81 408.182 173.81C408.754 173.81 409.183 173.953 409.469 174.239C409.755 174.525 409.997 175.053 410.195 175.823L412.307 187.802C412.417 188.33 412.384 188.748 412.208 189.056C412.032 189.364 411.735 189.562 411.317 189.65C410.921 189.738 410.569 189.716 410.261 189.584C409.953 189.43 409.689 189.133 409.469 188.693C408.061 185.635 406.818 183.314 405.74 181.73C404.684 180.146 403.672 179.068 402.704 178.496C401.758 177.924 400.757 177.638 399.701 177.638H396.962V216.38C396.962 216.798 397.094 217.139 397.358 217.403C397.622 217.645 398.007 217.843 398.513 217.997L400.361 218.426C401.109 218.668 401.483 219.119 401.483 219.779C401.483 220.593 400.944 221 399.866 221H381.683C381.155 221 380.759 220.89 380.495 220.67C380.231 220.428 380.099 220.131 380.099 219.779C380.099 219.119 380.473 218.668 381.221 218.426L383.069 217.997C383.575 217.843 383.96 217.645 384.224 217.403C384.488 217.139 384.62 216.798 384.62 216.38V177.638H381.848C380.836 177.638 379.857 177.946 378.911 178.562C377.965 179.156 376.942 180.245 375.842 181.829C374.764 183.413 373.51 185.701 372.08 188.693C371.882 189.133 371.618 189.43 371.288 189.584C370.98 189.716 370.639 189.738 370.265 189.65C369.847 189.562 369.55 189.364 369.374 189.056C369.22 188.748 369.187 188.33 369.275 187.802L371.387 175.823C371.563 175.053 371.794 174.525 372.08 174.239C372.388 173.953 372.828 173.81 373.4 173.81C373.752 173.81 374.126 173.898 374.522 174.074C374.94 174.228 375.413 174.393 375.941 174.569C376.491 174.723 377.14 174.8 377.888 174.8Z" fill="#4B6FF7"/>
<path d="M220.812 285.665L218.007 286.721L228.369 258.539C228.743 257.483 229.172 256.768 229.656 256.394C230.162 255.998 230.844 255.8 231.702 255.8H243.615C244.165 255.8 244.572 255.91 244.836 256.13C245.1 256.35 245.232 256.647 245.232 257.021C245.232 257.373 245.133 257.659 244.935 257.879C244.759 258.099 244.484 258.264 244.11 258.374L242.328 258.803C241.712 258.979 241.283 259.254 241.041 259.628C240.821 259.98 240.733 260.519 240.777 261.245L243.318 296.852C243.362 297.578 243.483 298.084 243.681 298.37C243.901 298.634 244.297 298.843 244.869 298.997L246.651 299.426C247.003 299.514 247.256 299.668 247.41 299.888C247.586 300.108 247.674 300.383 247.674 300.713C247.674 301.065 247.542 301.373 247.278 301.637C247.014 301.879 246.618 302 246.09 302H228.204C227.632 302 227.214 301.89 226.95 301.67C226.686 301.428 226.554 301.131 226.554 300.779C226.554 300.449 226.642 300.174 226.818 299.954C226.994 299.712 227.291 299.536 227.709 299.426L229.458 298.997C230.096 298.821 230.525 298.579 230.745 298.271C230.987 297.963 231.086 297.479 231.042 296.819L228.402 261.245L230.877 260.816L217.578 297.809C217.204 298.799 216.83 299.437 216.456 299.723C216.082 299.987 215.653 300.119 215.169 300.119C214.817 300.119 214.487 300.075 214.179 299.987C213.893 299.877 213.618 299.646 213.354 299.294C213.09 298.942 212.815 298.414 212.529 297.71L198.504 261.806L200.847 260.849L198.141 295.07C198.053 296.104 198.317 296.94 198.933 297.578C199.571 298.194 200.396 298.7 201.408 299.096L202.86 299.558C203.124 299.668 203.322 299.822 203.454 300.02C203.608 300.196 203.685 300.427 203.685 300.713C203.685 301.087 203.553 301.395 203.289 301.637C203.047 301.879 202.651 302 202.101 302H191.079C190.551 302 190.155 301.89 189.891 301.67C189.649 301.428 189.528 301.131 189.528 300.779C189.528 300.383 189.638 300.086 189.858 299.888C190.078 299.69 190.364 299.514 190.716 299.36L191.838 298.997C192.718 298.689 193.455 298.216 194.049 297.578C194.665 296.918 195.017 296.06 195.105 295.004L197.646 263.225C197.756 261.839 197.69 260.805 197.448 260.123C197.228 259.441 196.777 259.012 196.095 258.836L194.412 258.407C193.994 258.297 193.686 258.132 193.488 257.912C193.29 257.692 193.191 257.406 193.191 257.054C193.191 256.218 193.741 255.8 194.841 255.8H206.853C207.645 255.8 208.283 255.976 208.767 256.328C209.251 256.658 209.691 257.34 210.087 258.374L220.812 285.665Z" fill="#4B6FF7"/>
<path d="M269.633 298.139V297.578L268.907 297.677V276.326C268.907 275.138 268.61 274.214 268.016 273.554C267.444 272.872 266.652 272.531 265.64 272.531C264.65 272.531 263.869 272.773 263.297 273.257C262.747 273.741 262.472 274.335 262.472 275.039V278.24C262.472 279.692 261.955 280.869 260.921 281.771C259.909 282.651 258.501 283.091 256.697 283.091C255.267 283.091 254.167 282.75 253.397 282.068C252.627 281.386 252.242 280.396 252.242 279.098C252.242 277.778 252.803 276.469 253.925 275.171C255.069 273.851 256.763 272.762 259.007 271.904C261.251 271.024 264.045 270.584 267.389 270.584C271.569 270.584 274.682 271.409 276.728 273.059C278.796 274.687 279.83 276.942 279.83 279.824V296.39C279.83 296.962 279.94 297.402 280.16 297.71C280.402 297.996 280.732 298.139 281.15 298.139C281.568 298.139 281.909 298.029 282.173 297.809C282.437 297.567 282.635 297.259 282.767 296.885C282.877 296.753 282.976 296.654 283.064 296.588C283.174 296.5 283.295 296.456 283.427 296.456C283.647 296.456 283.801 296.533 283.889 296.687C283.999 296.841 284.054 297.05 284.054 297.314C284.054 298.018 283.779 298.799 283.229 299.657C282.701 300.493 281.865 301.219 280.721 301.835C279.577 302.451 278.114 302.759 276.332 302.759C274.198 302.759 272.548 302.33 271.382 301.472C270.216 300.614 269.633 299.503 269.633 298.139ZM250.757 295.202C250.757 292.474 251.956 290.296 254.354 288.668C256.752 287.04 260.305 286.226 265.013 286.226C266.289 286.226 267.389 286.336 268.313 286.556C269.237 286.776 270.04 287.073 270.722 287.447L270.062 289.064C269.446 288.734 268.83 288.492 268.214 288.338C267.62 288.184 266.949 288.107 266.201 288.107C264.815 288.107 263.726 288.569 262.934 289.493C262.164 290.417 261.779 291.737 261.779 293.453C261.779 295.147 262.142 296.423 262.868 297.281C263.616 298.139 264.573 298.568 265.739 298.568C266.575 298.568 267.378 298.37 268.148 297.974C268.94 297.556 269.578 297.006 270.062 296.324L270.689 297.776C269.633 299.382 268.159 300.625 266.267 301.505C264.375 302.363 262.351 302.792 260.195 302.792C257.401 302.792 255.124 302.088 253.364 300.68C251.626 299.25 250.757 297.424 250.757 295.202Z" fill="#4B6FF7"/>
<path d="M299.5 284.477C299.5 281.397 299.929 278.823 300.787 276.755C301.667 274.687 302.811 273.147 304.219 272.135C305.649 271.101 307.167 270.584 308.773 270.584C310.797 270.584 312.348 271.189 313.426 272.399C314.504 273.609 315.043 275.413 315.043 277.811C315.043 280.055 314.559 281.727 313.591 282.827C312.623 283.905 311.391 284.444 309.895 284.444C308.399 284.444 307.288 284.059 306.562 283.289C305.836 282.497 305.451 281.375 305.407 279.923V278.702C305.385 278.086 305.242 277.624 304.978 277.316C304.736 276.986 304.329 276.821 303.757 276.821C303.163 276.821 302.613 277.085 302.107 277.613C301.601 278.141 301.194 278.966 300.886 280.088C300.578 281.188 300.424 282.618 300.424 284.378L299.5 284.477ZM299.962 272.432L300.424 280.946V297.413C300.424 297.941 300.523 298.348 300.721 298.634C300.919 298.898 301.293 299.085 301.843 299.195L304.747 299.69C305.143 299.778 305.429 299.921 305.605 300.119C305.803 300.295 305.902 300.548 305.902 300.878C305.902 301.23 305.77 301.505 305.506 301.703C305.264 301.901 304.901 302 304.417 302H287.818C287.312 302 286.938 301.901 286.696 301.703C286.476 301.505 286.366 301.23 286.366 300.878C286.366 300.636 286.443 300.416 286.597 300.218C286.751 300.02 286.993 299.866 287.323 299.756L288.511 299.426C288.863 299.316 289.105 299.129 289.237 298.865C289.391 298.601 289.468 298.183 289.468 297.611V277.712C289.468 277.272 289.402 276.953 289.27 276.755C289.138 276.535 288.918 276.392 288.61 276.326L287.125 276.227C286.839 276.161 286.619 276.051 286.465 275.897C286.333 275.721 286.267 275.501 286.267 275.237C286.267 274.951 286.355 274.72 286.531 274.544C286.729 274.346 287.048 274.17 287.488 274.016L295.804 271.508C296.684 271.178 297.322 270.969 297.718 270.881C298.114 270.771 298.433 270.716 298.675 270.716C299.071 270.716 299.368 270.859 299.566 271.145C299.764 271.409 299.896 271.838 299.962 272.432Z" fill="#4B6FF7"/>
<path d="M318.85 302C318.366 302 318.014 301.901 317.794 301.703C317.574 301.505 317.464 301.241 317.464 300.911C317.464 300.647 317.541 300.416 317.695 300.218C317.849 300.02 318.091 299.866 318.421 299.756L319.642 299.426C319.972 299.316 320.203 299.129 320.335 298.865C320.489 298.579 320.566 298.139 320.566 297.545V259.661C320.566 259.221 320.5 258.913 320.368 258.737C320.236 258.539 320.016 258.407 319.708 258.341L318.289 258.242C317.981 258.154 317.75 258.033 317.596 257.879C317.464 257.703 317.398 257.494 317.398 257.252C317.398 256.944 317.486 256.702 317.662 256.526C317.838 256.35 318.157 256.174 318.619 255.998L327.034 253.259C327.716 253.017 328.255 252.841 328.651 252.731C329.047 252.621 329.432 252.566 329.806 252.566C330.378 252.566 330.807 252.731 331.093 253.061C331.379 253.369 331.522 253.776 331.522 254.282V297.545C331.522 298.139 331.599 298.579 331.753 298.865C331.907 299.129 332.149 299.316 332.479 299.426L333.634 299.789C334.162 300.009 334.426 300.361 334.426 300.845C334.426 301.615 333.942 302 332.974 302H318.85ZM328.882 288.932L341.62 277.646C342.5 276.854 342.852 276.095 342.676 275.369C342.522 274.643 341.917 274.126 340.861 273.818L339.739 273.521C339.431 273.411 339.211 273.279 339.079 273.125C338.969 272.949 338.914 272.729 338.914 272.465C338.914 272.113 339.035 271.849 339.277 271.673C339.541 271.475 339.882 271.376 340.3 271.376H352.84C353.28 271.376 353.621 271.475 353.863 271.673C354.105 271.849 354.226 272.102 354.226 272.432C354.226 272.74 354.127 273.004 353.929 273.224C353.731 273.444 353.302 273.642 352.642 273.818C351.212 274.148 349.892 274.643 348.682 275.303C347.494 275.963 346.207 276.92 344.821 278.174L329.872 291.044L328.882 288.932ZM340.696 279.56L352.279 297.743C352.631 298.293 352.961 298.7 353.269 298.964C353.599 299.206 354.017 299.437 354.523 299.657C354.897 299.855 355.172 300.064 355.348 300.284C355.524 300.504 355.612 300.735 355.612 300.977C355.612 301.285 355.491 301.538 355.249 301.736C355.007 301.912 354.677 302 354.259 302H339.112C338.738 302 338.43 301.901 338.188 301.703C337.968 301.505 337.858 301.241 337.858 300.911C337.858 300.691 337.913 300.504 338.023 300.35C338.133 300.196 338.331 300.053 338.617 299.921L339.64 299.624C340.146 299.47 340.432 299.239 340.498 298.931C340.564 298.623 340.388 298.15 339.97 297.512L333.271 286.589L340.696 279.56Z" fill="#4B6FF7"/>
<path d="M387.4 283.421C387.4 284.323 387.147 285.027 386.641 285.533C386.135 286.039 385.387 286.292 384.397 286.292H364.135V284.213H375.223C376.081 284.213 376.51 283.795 376.51 282.959C376.51 279.593 376.07 277.129 375.19 275.567C374.31 274.005 373.21 273.224 371.89 273.224C370.878 273.224 369.976 273.587 369.184 274.313C368.414 275.017 367.798 276.106 367.336 277.58C366.896 279.054 366.676 280.924 366.676 283.19C366.676 287.502 367.622 290.692 369.514 292.76C371.406 294.806 373.925 295.829 377.071 295.829C379.029 295.829 380.712 295.422 382.12 294.608C383.55 293.772 384.573 292.573 385.189 291.011C385.497 290.681 385.739 290.461 385.915 290.351C386.113 290.219 386.311 290.153 386.509 290.153C386.751 290.153 386.938 290.274 387.07 290.516C387.202 290.758 387.268 291.066 387.268 291.44C387.224 293.508 386.575 295.411 385.321 297.149C384.067 298.865 382.362 300.24 380.206 301.274C378.072 302.286 375.619 302.792 372.847 302.792C369.745 302.792 366.984 302.154 364.564 300.878C362.144 299.58 360.241 297.776 358.855 295.466C357.469 293.134 356.776 290.428 356.776 287.348C356.776 283.982 357.436 281.045 358.756 278.537C360.076 276.029 361.968 274.071 364.432 272.663C366.918 271.255 369.877 270.551 373.309 270.551C376.301 270.551 378.842 271.112 380.932 272.234C383.022 273.334 384.617 274.852 385.717 276.788C386.839 278.724 387.4 280.935 387.4 283.421Z" fill="#4B6FF7"/>
<path d="M392.43 274.082L390.582 273.587C390.23 273.455 389.977 273.301 389.823 273.125C389.669 272.927 389.592 272.707 389.592 272.465C389.592 272.113 389.702 271.849 389.922 271.673C390.164 271.475 390.483 271.376 390.879 271.376H393.123C393.453 271.376 393.739 271.31 393.981 271.178C394.245 271.024 394.542 270.76 394.872 270.386L400.746 264.644C401.164 264.204 401.56 263.874 401.934 263.654C402.308 263.434 402.671 263.324 403.023 263.324C403.419 263.324 403.727 263.456 403.947 263.72C404.167 263.962 404.277 264.325 404.277 264.809V292.133C404.277 293.827 404.585 295.103 405.201 295.961C405.839 296.819 406.708 297.248 407.808 297.248C408.468 297.248 409.007 297.116 409.425 296.852C409.843 296.566 410.195 296.225 410.481 295.829C410.767 295.411 411.042 295.004 411.306 294.608C411.592 294.19 411.9 293.827 412.23 293.519C412.494 293.475 412.714 293.53 412.89 293.684C413.066 293.838 413.143 294.135 413.121 294.575C412.989 296.203 412.505 297.633 411.669 298.865C410.833 300.075 409.689 301.021 408.237 301.703C406.785 302.385 405.091 302.726 403.155 302.726C400.075 302.726 397.688 301.989 395.994 300.515C394.322 299.019 393.486 296.753 393.486 293.717V275.567C393.486 275.127 393.398 274.808 393.222 274.61C393.068 274.39 392.804 274.214 392.43 274.082ZM400.548 274.049L400.68 271.376H411.702C412.098 271.376 412.406 271.464 412.626 271.64C412.868 271.794 412.989 272.036 412.989 272.366C412.989 272.828 412.747 273.224 412.263 273.554C411.779 273.884 411.009 274.049 409.953 274.049H400.548Z" fill="#4B6FF7"/>
<path d="M429.846 272.3V297.545C429.846 298.139 429.912 298.579 430.044 298.865C430.198 299.129 430.44 299.316 430.77 299.426L431.991 299.756C432.321 299.866 432.563 300.02 432.717 300.218C432.871 300.416 432.948 300.647 432.948 300.911C432.948 301.241 432.827 301.505 432.585 301.703C432.365 301.901 432.002 302 431.496 302H417.207C416.723 302 416.36 301.901 416.118 301.703C415.898 301.505 415.788 301.241 415.788 300.911C415.788 300.647 415.854 300.427 415.986 300.251C416.14 300.053 416.382 299.888 416.712 299.756L417.966 299.426C418.296 299.316 418.527 299.129 418.659 298.865C418.813 298.579 418.89 298.139 418.89 297.545V277.712C418.89 277.272 418.813 276.953 418.659 276.755C418.527 276.557 418.318 276.436 418.032 276.392L416.613 276.26C416.305 276.194 416.074 276.084 415.92 275.93C415.788 275.754 415.722 275.534 415.722 275.27C415.722 274.984 415.81 274.753 415.986 274.577C416.162 274.401 416.47 274.225 416.91 274.049L425.358 271.31C426.062 271.046 426.612 270.87 427.008 270.782C427.404 270.672 427.756 270.617 428.064 270.617C428.658 270.617 429.098 270.782 429.384 271.112C429.692 271.42 429.846 271.816 429.846 272.3ZM423.873 267.02C421.915 267.02 420.353 266.492 419.187 265.436C418.021 264.38 417.438 263.016 417.438 261.344C417.438 259.672 418.021 258.319 419.187 257.285C420.375 256.229 421.937 255.701 423.873 255.701C425.831 255.701 427.404 256.229 428.592 257.285C429.78 258.319 430.374 259.672 430.374 261.344C430.374 263.016 429.78 264.38 428.592 265.436C427.404 266.492 425.831 267.02 423.873 267.02Z" fill="#4B6FF7"/>
<path d="M449.858 272.3V297.545C449.858 298.139 449.935 298.579 450.089 298.865C450.243 299.129 450.485 299.316 450.815 299.426L451.97 299.789C452.498 300.009 452.762 300.361 452.762 300.845C452.762 301.615 452.278 302 451.31 302H437.219C436.735 302 436.372 301.901 436.13 301.703C435.91 301.505 435.8 301.241 435.8 300.911C435.8 300.647 435.866 300.427 435.998 300.251C436.152 300.053 436.394 299.888 436.724 299.756L437.978 299.426C438.308 299.316 438.539 299.129 438.671 298.865C438.825 298.579 438.902 298.139 438.902 297.545V277.712C438.902 277.272 438.836 276.953 438.704 276.755C438.572 276.557 438.352 276.436 438.044 276.392L436.625 276.26C436.317 276.194 436.086 276.084 435.932 275.93C435.8 275.754 435.734 275.534 435.734 275.27C435.734 274.984 435.822 274.753 435.998 274.577C436.174 274.401 436.493 274.225 436.955 274.049L445.37 271.31C446.052 271.046 446.591 270.87 446.987 270.782C447.383 270.672 447.768 270.617 448.142 270.617C448.714 270.617 449.143 270.782 449.429 271.112C449.715 271.42 449.858 271.816 449.858 272.3ZM448.868 279.725L447.68 278.471L448.835 277.382C451.497 274.984 453.796 273.257 455.732 272.201C457.69 271.123 459.494 270.584 461.144 270.584C463.608 270.584 465.533 271.387 466.919 272.993C468.305 274.599 469.152 276.843 469.46 279.725L471.374 297.479C471.44 298.095 471.539 298.557 471.671 298.865C471.803 299.151 472.045 299.349 472.397 299.459L473.519 299.756C473.849 299.888 474.091 300.053 474.245 300.251C474.399 300.427 474.476 300.647 474.476 300.911C474.476 301.241 474.355 301.505 474.113 301.703C473.893 301.901 473.541 302 473.057 302H458.735C457.789 302 457.316 301.615 457.316 300.845C457.316 300.361 457.58 300.009 458.108 299.789L459.296 299.426C459.648 299.316 459.912 299.118 460.088 298.832C460.264 298.524 460.319 298.073 460.253 297.479L458.57 281.144C458.416 279.56 458.042 278.394 457.448 277.646C456.876 276.876 455.996 276.491 454.808 276.491C454.038 276.491 453.257 276.678 452.465 277.052C451.695 277.426 450.903 277.965 450.089 278.669L448.868 279.725Z" fill="#4B6FF7"/>
<path d="M497.659 298.7C501.025 299.14 503.676 299.723 505.612 300.449C507.57 301.175 508.967 302.11 509.803 303.254C510.639 304.42 511.057 305.861 511.057 307.577C511.057 310.679 509.44 313.22 506.206 315.2C502.994 317.18 498.363 318.17 492.313 318.17C488.221 318.17 484.965 317.873 482.545 317.279C480.147 316.685 478.431 315.86 477.397 314.804C476.363 313.748 475.846 312.527 475.846 311.141C475.846 309.425 476.616 307.995 478.156 306.851C479.696 305.707 482.413 304.915 486.307 304.475L486.538 305.201C485.68 305.421 485.009 305.828 484.525 306.422C484.063 307.038 483.832 307.709 483.832 308.435C483.832 310.613 484.591 312.351 486.109 313.649C487.649 314.969 490.157 315.629 493.633 315.629C495.613 315.629 497.197 315.464 498.385 315.134C499.573 314.826 500.431 314.353 500.959 313.715C501.509 313.077 501.784 312.285 501.784 311.339C501.784 310.547 501.487 309.865 500.893 309.293C500.321 308.743 499.298 308.248 497.824 307.808C496.372 307.39 494.348 306.983 491.752 306.587C488.672 306.125 486.285 305.619 484.591 305.069C482.897 304.519 481.709 303.848 481.027 303.056C480.367 302.286 480.037 301.318 480.037 300.152C480.037 299.074 480.334 298.095 480.928 297.215C481.544 296.313 482.556 295.565 483.964 294.971C485.372 294.355 487.308 293.959 489.772 293.783L490.102 294.245C489.64 294.399 489.277 294.608 489.013 294.872C488.771 295.136 488.65 295.444 488.65 295.796C488.65 296.148 488.826 296.467 489.178 296.753C489.552 297.039 490.377 297.336 491.653 297.644C492.929 297.952 494.931 298.304 497.659 298.7ZM497.923 273.29L498.715 271.442C499.727 269 500.992 267.141 502.51 265.865C504.05 264.567 505.777 263.918 507.691 263.918C509.275 263.918 510.529 264.358 511.453 265.238C512.377 266.118 512.839 267.328 512.839 268.868C512.839 270.232 512.498 271.321 511.816 272.135C511.134 272.927 510.199 273.323 509.011 273.323C508.219 273.323 507.592 273.136 507.13 272.762C506.668 272.388 506.261 271.959 505.909 271.475C505.557 270.969 505.172 270.529 504.754 270.155C504.358 269.781 503.83 269.594 503.17 269.594C502.444 269.594 501.828 269.88 501.322 270.452C500.838 271.002 500.299 271.97 499.705 273.356L497.923 273.29ZM508.582 282.2C508.582 284.642 507.911 286.809 506.569 288.701C505.227 290.571 503.346 292.034 500.926 293.09C498.506 294.146 495.69 294.674 492.478 294.674C489.244 294.674 486.461 294.168 484.129 293.156C481.797 292.144 480.004 290.769 478.75 289.031C477.496 287.293 476.869 285.368 476.869 283.256C476.869 280.792 477.529 278.614 478.849 276.722C480.191 274.83 482.094 273.345 484.558 272.267C487.022 271.189 489.937 270.65 493.303 270.65C496.537 270.65 499.287 271.178 501.553 272.234C503.841 273.268 505.579 274.665 506.767 276.425C507.977 278.163 508.582 280.088 508.582 282.2ZM491.29 272.993C490.388 273.081 489.651 273.521 489.079 274.313C488.529 275.083 488.166 276.194 487.99 277.646C487.836 279.076 487.902 280.825 488.188 282.893C488.474 284.983 488.892 286.743 489.442 288.173C490.014 289.581 490.696 290.626 491.488 291.308C492.28 291.99 493.138 292.287 494.062 292.199C495.426 292.067 496.383 291.165 496.933 289.493C497.505 287.799 497.571 285.401 497.131 282.299C496.713 279.153 495.987 276.777 494.953 275.171C493.919 273.565 492.698 272.839 491.29 272.993Z" fill="#4B6FF7"/>
<path d="M233.814 354.158C233.814 357.062 233.077 359.592 231.603 361.748C230.151 363.882 228.083 365.532 225.399 366.698C222.737 367.864 219.602 368.447 215.994 368.447C213.42 368.447 211.176 368.172 209.262 367.622C207.348 367.05 205.632 366.258 204.114 365.246L204.444 362.903C205.346 363.519 206.215 364.025 207.051 364.421C207.909 364.817 208.778 365.103 209.658 365.279C210.538 365.455 211.473 365.543 212.463 365.543C214.179 365.543 215.741 365.114 217.149 364.256C218.579 363.376 219.712 362.067 220.548 360.329C221.406 358.591 221.835 356.435 221.835 353.861C221.835 350.847 221.34 348.273 220.35 346.139C219.36 343.983 218.007 342.333 216.291 341.189C214.597 340.045 212.661 339.473 210.483 339.473H208.635V378.38C208.635 378.798 208.756 379.15 208.998 379.436C209.24 379.7 209.636 379.887 210.186 379.997L212.595 380.393C213.035 380.481 213.343 380.635 213.519 380.855C213.717 381.075 213.816 381.383 213.816 381.779C213.816 382.131 213.684 382.428 213.42 382.67C213.178 382.89 212.782 383 212.232 383H193.389C192.839 383 192.432 382.89 192.168 382.67C191.904 382.428 191.772 382.12 191.772 381.746C191.772 381.108 192.146 380.668 192.894 380.426L194.775 379.997C195.303 379.843 195.688 379.645 195.93 379.403C196.172 379.139 196.293 378.798 196.293 378.38V341.486C196.293 341.046 196.172 340.694 195.93 340.43C195.688 340.166 195.314 339.957 194.808 339.803L192.861 339.374C192.135 339.132 191.772 338.692 191.772 338.054C191.772 337.658 191.904 337.35 192.168 337.13C192.432 336.91 192.839 336.8 193.389 336.8H210.681C215.499 336.8 219.635 337.537 223.089 339.011C226.543 340.485 229.194 342.531 231.042 345.149C232.89 347.745 233.814 350.748 233.814 354.158Z" fill="#4B6FF7"/>
<path d="M253.352 351.584C256.696 351.584 259.633 352.266 262.163 353.63C264.715 354.994 266.706 356.897 268.136 359.339C269.566 361.759 270.281 364.575 270.281 367.787C270.281 370.845 269.533 373.584 268.037 376.004C266.563 378.402 264.528 380.305 261.932 381.713C259.336 383.099 256.322 383.792 252.89 383.792C249.546 383.792 246.598 383.11 244.046 381.746C241.516 380.382 239.536 378.49 238.106 376.07C236.698 373.628 235.994 370.823 235.994 367.655C235.994 364.575 236.731 361.825 238.205 359.405C239.679 356.985 241.714 355.082 244.31 353.696C246.928 352.288 249.942 351.584 253.352 351.584ZM255.464 381.053C256.608 380.877 257.499 380.239 258.137 379.139C258.797 378.039 259.182 376.466 259.292 374.42C259.424 372.374 259.226 369.844 258.698 366.83C258.214 363.838 257.576 361.385 256.784 359.471C256.014 357.557 255.123 356.171 254.111 355.313C253.099 354.455 251.999 354.125 250.811 354.323C249.667 354.499 248.765 355.148 248.105 356.27C247.467 357.37 247.093 358.943 246.983 360.989C246.895 363.013 247.104 365.532 247.61 368.546C248.094 371.516 248.732 373.969 249.524 375.905C250.316 377.819 251.207 379.205 252.197 380.063C253.209 380.921 254.298 381.251 255.464 381.053Z" fill="#4B6FF7"/>
<path d="M296.338 378.182L296.074 378.05V340.661C296.074 340.221 296.008 339.913 295.876 339.737C295.744 339.539 295.524 339.407 295.216 339.341L293.797 339.242C293.489 339.154 293.269 339.033 293.137 338.879C293.005 338.703 292.939 338.494 292.939 338.252C292.939 337.944 293.027 337.702 293.203 337.526C293.379 337.35 293.687 337.174 294.127 336.998L302.542 334.259C303.224 334.017 303.763 333.841 304.159 333.731C304.555 333.621 304.94 333.566 305.314 333.566C305.886 333.566 306.315 333.731 306.601 334.061C306.887 334.369 307.03 334.776 307.03 335.282V378.545C307.03 379.139 307.107 379.579 307.261 379.865C307.415 380.129 307.657 380.316 307.987 380.426L309.175 380.756C309.527 380.866 309.769 381.02 309.901 381.218C310.055 381.416 310.132 381.647 310.132 381.911C310.132 382.241 310.011 382.505 309.769 382.703C309.549 382.901 309.197 383 308.713 383H299.572C298.67 383 297.9 382.703 297.262 382.109C296.646 381.493 296.338 380.734 296.338 379.832V378.182ZM273.667 368.612C273.667 365.18 274.338 362.188 275.68 359.636C277.044 357.062 278.892 355.082 281.224 353.696C283.556 352.288 286.185 351.584 289.111 351.584C291.553 351.584 293.621 352.079 295.315 353.069C297.031 354.059 298.461 355.544 299.605 357.524L297.559 358.976C296.723 357.546 295.799 356.501 294.787 355.841C293.797 355.159 292.675 354.818 291.421 354.818C290.167 354.818 289.045 355.236 288.055 356.072C287.087 356.886 286.328 358.228 285.778 360.098C285.228 361.946 284.953 364.432 284.953 367.556C284.953 370.372 285.206 372.66 285.712 374.42C286.24 376.158 286.955 377.445 287.857 378.281C288.781 379.095 289.837 379.502 291.025 379.502C292.279 379.502 293.456 379.117 294.556 378.347C295.656 377.577 296.69 376.356 297.658 374.684L298.978 376.136C297.328 378.6 295.513 380.492 293.533 381.812C291.553 383.132 289.309 383.792 286.801 383.792C284.249 383.792 281.983 383.165 280.003 381.911C278.023 380.635 276.472 378.864 275.35 376.598C274.228 374.332 273.667 371.67 273.667 368.612Z" fill="#4B6FF7"/>
<path d="M201.966 172.8H227.706C228.454 172.8 229.103 172.723 229.653 172.569C230.203 172.393 230.687 172.228 231.105 172.074C231.523 171.898 231.908 171.81 232.26 171.81C232.832 171.81 233.261 171.953 233.547 172.239C233.833 172.525 234.075 173.053 234.273 173.823L236.385 185.802C236.495 186.33 236.462 186.748 236.286 187.056C236.11 187.364 235.813 187.562 235.395 187.65C234.999 187.738 234.647 187.716 234.339 187.584C234.031 187.43 233.767 187.133 233.547 186.693C232.139 183.635 230.896 181.314 229.818 179.73C228.762 178.146 227.75 177.068 226.782 176.496C225.836 175.924 224.835 175.638 223.779 175.638H221.04V214.38C221.04 214.798 221.172 215.139 221.436 215.403C221.7 215.645 222.085 215.843 222.591 215.997L224.439 216.426C225.187 216.668 225.561 217.119 225.561 217.779C225.561 218.593 225.022 219 223.944 219H205.761C205.233 219 204.837 218.89 204.573 218.67C204.309 218.428 204.177 218.131 204.177 217.779C204.177 217.119 204.551 216.668 205.299 216.426L207.147 215.997C207.653 215.843 208.038 215.645 208.302 215.403C208.566 215.139 208.698 214.798 208.698 214.38V175.638H205.926C204.914 175.638 203.935 175.946 202.989 176.562C202.043 177.156 201.02 178.245 199.92 179.829C198.842 181.413 197.588 183.701 196.158 186.693C195.96 187.133 195.696 187.43 195.366 187.584C195.058 187.716 194.717 187.738 194.343 187.65C193.925 187.562 193.628 187.364 193.452 187.056C193.298 186.748 193.265 186.33 193.353 185.802L195.465 173.823C195.641 173.053 195.872 172.525 196.158 172.239C196.466 171.953 196.906 171.81 197.478 171.81C197.83 171.81 198.204 171.898 198.6 172.074C199.018 172.228 199.491 172.393 200.019 172.569C200.569 172.723 201.218 172.8 201.966 172.8Z" fill="white"/>
<path d="M253.569 171.282V214.545C253.569 215.139 253.646 215.579 253.8 215.865C253.954 216.129 254.196 216.316 254.526 216.426L255.681 216.789C256.209 217.009 256.473 217.361 256.473 217.845C256.473 218.615 255.989 219 255.021 219H240.93C240.446 219 240.083 218.901 239.841 218.703C239.621 218.505 239.511 218.241 239.511 217.911C239.511 217.647 239.588 217.416 239.742 217.218C239.896 217.02 240.138 216.866 240.468 216.756L241.689 216.426C242.019 216.316 242.25 216.129 242.382 215.865C242.536 215.579 242.613 215.139 242.613 214.545V176.661C242.613 176.221 242.547 175.913 242.415 175.737C242.283 175.539 242.063 175.407 241.755 175.341L240.336 175.242C240.028 175.154 239.797 175.033 239.643 174.879C239.511 174.703 239.445 174.494 239.445 174.252C239.445 173.944 239.533 173.702 239.709 173.526C239.885 173.35 240.204 173.174 240.666 172.998L249.081 170.259C249.763 170.017 250.302 169.841 250.698 169.731C251.094 169.621 251.479 169.566 251.853 169.566C252.425 169.566 252.854 169.731 253.14 170.061C253.426 170.369 253.569 170.776 253.569 171.282ZM252.579 196.725L251.391 195.471L252.546 194.382C255.208 191.984 257.507 190.257 259.443 189.201C261.401 188.123 263.205 187.584 264.855 187.584C267.341 187.584 269.266 188.387 270.63 189.993C272.016 191.599 272.863 193.843 273.171 196.725L275.085 214.479C275.151 215.095 275.25 215.557 275.382 215.865C275.514 216.151 275.756 216.349 276.108 216.459L277.23 216.756C277.56 216.888 277.802 217.053 277.956 217.251C278.11 217.427 278.187 217.647 278.187 217.911C278.187 218.241 278.066 218.505 277.824 218.703C277.604 218.901 277.252 219 276.768 219H262.446C261.5 219 261.027 218.615 261.027 217.845C261.027 217.361 261.291 217.009 261.819 216.789L263.007 216.426C263.359 216.316 263.623 216.118 263.799 215.832C263.975 215.524 264.03 215.073 263.964 214.479L262.281 198.144C262.127 196.56 261.753 195.394 261.159 194.646C260.587 193.876 259.707 193.491 258.519 193.491C257.749 193.491 256.968 193.678 256.176 194.052C255.406 194.426 254.614 194.965 253.8 195.669L252.579 196.725Z" fill="white"/>
<path d="M310.478 200.421C310.478 201.323 310.225 202.027 309.719 202.533C309.213 203.039 308.465 203.292 307.475 203.292H287.213V201.213H298.301C299.159 201.213 299.588 200.795 299.588 199.959C299.588 196.593 299.148 194.129 298.268 192.567C297.388 191.005 296.288 190.224 294.968 190.224C293.956 190.224 293.054 190.587 292.262 191.313C291.492 192.017 290.876 193.106 290.414 194.58C289.974 196.054 289.754 197.924 289.754 200.19C289.754 204.502 290.7 207.692 292.592 209.76C294.484 211.806 297.003 212.829 300.149 212.829C302.107 212.829 303.79 212.422 305.198 211.608C306.628 210.772 307.651 209.573 308.267 208.011C308.575 207.681 308.817 207.461 308.993 207.351C309.191 207.219 309.389 207.153 309.587 207.153C309.829 207.153 310.016 207.274 310.148 207.516C310.28 207.758 310.346 208.066 310.346 208.44C310.302 210.508 309.653 212.411 308.399 214.149C307.145 215.865 305.44 217.24 303.284 218.274C301.15 219.286 298.697 219.792 295.925 219.792C292.823 219.792 290.062 219.154 287.642 217.878C285.222 216.58 283.319 214.776 281.933 212.466C280.547 210.134 279.854 207.428 279.854 204.348C279.854 200.982 280.514 198.045 281.834 195.537C283.154 193.029 285.046 191.071 287.51 189.663C289.996 188.255 292.955 187.551 296.387 187.551C299.379 187.551 301.92 188.112 304.01 189.234C306.1 190.334 307.695 191.852 308.795 193.788C309.917 195.724 310.478 197.935 310.478 200.421Z" fill="white"/>
<path d="M369.394 190.158C369.394 193.062 368.657 195.592 367.183 197.748C365.731 199.882 363.663 201.532 360.979 202.698C358.317 203.864 355.182 204.447 351.574 204.447C349 204.447 346.756 204.172 344.842 203.622C342.928 203.05 341.212 202.258 339.694 201.246L340.024 198.903C340.926 199.519 341.795 200.025 342.631 200.421C343.489 200.817 344.358 201.103 345.238 201.279C346.118 201.455 347.053 201.543 348.043 201.543C349.759 201.543 351.321 201.114 352.729 200.256C354.159 199.376 355.292 198.067 356.128 196.329C356.986 194.591 357.415 192.435 357.415 189.861C357.415 186.847 356.92 184.273 355.93 182.139C354.94 179.983 353.587 178.333 351.871 177.189C350.177 176.045 348.241 175.473 346.063 175.473H344.215V214.38C344.215 214.798 344.336 215.15 344.578 215.436C344.82 215.7 345.216 215.887 345.766 215.997L348.175 216.393C348.615 216.481 348.923 216.635 349.099 216.855C349.297 217.075 349.396 217.383 349.396 217.779C349.396 218.131 349.264 218.428 349 218.67C348.758 218.89 348.362 219 347.812 219H328.969C328.419 219 328.012 218.89 327.748 218.67C327.484 218.428 327.352 218.12 327.352 217.746C327.352 217.108 327.726 216.668 328.474 216.426L330.355 215.997C330.883 215.843 331.268 215.645 331.51 215.403C331.752 215.139 331.873 214.798 331.873 214.38V177.486C331.873 177.046 331.752 176.694 331.51 176.43C331.268 176.166 330.894 175.957 330.388 175.803L328.441 175.374C327.715 175.132 327.352 174.692 327.352 174.054C327.352 173.658 327.484 173.35 327.748 173.13C328.012 172.91 328.419 172.8 328.969 172.8H346.261C351.079 172.8 355.215 173.537 358.669 175.011C362.123 176.485 364.774 178.531 366.622 181.149C368.47 183.745 369.394 186.748 369.394 190.158Z" fill="white"/>
<path d="M380.888 172.8H406.628C407.376 172.8 408.025 172.723 408.575 172.569C409.125 172.393 409.609 172.228 410.027 172.074C410.445 171.898 410.83 171.81 411.182 171.81C411.754 171.81 412.183 171.953 412.469 172.239C412.755 172.525 412.997 173.053 413.195 173.823L415.307 185.802C415.417 186.33 415.384 186.748 415.208 187.056C415.032 187.364 414.735 187.562 414.317 187.65C413.921 187.738 413.569 187.716 413.261 187.584C412.953 187.43 412.689 187.133 412.469 186.693C411.061 183.635 409.818 181.314 408.74 179.73C407.684 178.146 406.672 177.068 405.704 176.496C404.758 175.924 403.757 175.638 402.701 175.638H399.962V214.38C399.962 214.798 400.094 215.139 400.358 215.403C400.622 215.645 401.007 215.843 401.513 215.997L403.361 216.426C404.109 216.668 404.483 217.119 404.483 217.779C404.483 218.593 403.944 219 402.866 219H384.683C384.155 219 383.759 218.89 383.495 218.67C383.231 218.428 383.099 218.131 383.099 217.779C383.099 217.119 383.473 216.668 384.221 216.426L386.069 215.997C386.575 215.843 386.96 215.645 387.224 215.403C387.488 215.139 387.62 214.798 387.62 214.38V175.638H384.848C383.836 175.638 382.857 175.946 381.911 176.562C380.965 177.156 379.942 178.245 378.842 179.829C377.764 181.413 376.51 183.701 375.08 186.693C374.882 187.133 374.618 187.43 374.288 187.584C373.98 187.716 373.639 187.738 373.265 187.65C372.847 187.562 372.55 187.364 372.374 187.056C372.22 186.748 372.187 186.33 372.275 185.802L374.387 173.823C374.563 173.053 374.794 172.525 375.08 172.239C375.388 171.953 375.828 171.81 376.4 171.81C376.752 171.81 377.126 171.898 377.522 172.074C377.94 172.228 378.413 172.393 378.941 172.569C379.491 172.723 380.14 172.8 380.888 172.8Z" fill="white"/>
<path d="M223.812 283.665L221.007 284.721L231.369 256.539C231.743 255.483 232.172 254.768 232.656 254.394C233.162 253.998 233.844 253.8 234.702 253.8H246.615C247.165 253.8 247.572 253.91 247.836 254.13C248.1 254.35 248.232 254.647 248.232 255.021C248.232 255.373 248.133 255.659 247.935 255.879C247.759 256.099 247.484 256.264 247.11 256.374L245.328 256.803C244.712 256.979 244.283 257.254 244.041 257.628C243.821 257.98 243.733 258.519 243.777 259.245L246.318 294.852C246.362 295.578 246.483 296.084 246.681 296.37C246.901 296.634 247.297 296.843 247.869 296.997L249.651 297.426C250.003 297.514 250.256 297.668 250.41 297.888C250.586 298.108 250.674 298.383 250.674 298.713C250.674 299.065 250.542 299.373 250.278 299.637C250.014 299.879 249.618 300 249.09 300H231.204C230.632 300 230.214 299.89 229.95 299.67C229.686 299.428 229.554 299.131 229.554 298.779C229.554 298.449 229.642 298.174 229.818 297.954C229.994 297.712 230.291 297.536 230.709 297.426L232.458 296.997C233.096 296.821 233.525 296.579 233.745 296.271C233.987 295.963 234.086 295.479 234.042 294.819L231.402 259.245L233.877 258.816L220.578 295.809C220.204 296.799 219.83 297.437 219.456 297.723C219.082 297.987 218.653 298.119 218.169 298.119C217.817 298.119 217.487 298.075 217.179 297.987C216.893 297.877 216.618 297.646 216.354 297.294C216.09 296.942 215.815 296.414 215.529 295.71L201.504 259.806L203.847 258.849L201.141 293.07C201.053 294.104 201.317 294.94 201.933 295.578C202.571 296.194 203.396 296.7 204.408 297.096L205.86 297.558C206.124 297.668 206.322 297.822 206.454 298.02C206.608 298.196 206.685 298.427 206.685 298.713C206.685 299.087 206.553 299.395 206.289 299.637C206.047 299.879 205.651 300 205.101 300H194.079C193.551 300 193.155 299.89 192.891 299.67C192.649 299.428 192.528 299.131 192.528 298.779C192.528 298.383 192.638 298.086 192.858 297.888C193.078 297.69 193.364 297.514 193.716 297.36L194.838 296.997C195.718 296.689 196.455 296.216 197.049 295.578C197.665 294.918 198.017 294.06 198.105 293.004L200.646 261.225C200.756 259.839 200.69 258.805 200.448 258.123C200.228 257.441 199.777 257.012 199.095 256.836L197.412 256.407C196.994 256.297 196.686 256.132 196.488 255.912C196.29 255.692 196.191 255.406 196.191 255.054C196.191 254.218 196.741 253.8 197.841 253.8H209.853C210.645 253.8 211.283 253.976 211.767 254.328C212.251 254.658 212.691 255.34 213.087 256.374L223.812 283.665Z" fill="white"/>
<path d="M272.633 296.139V295.578L271.907 295.677V274.326C271.907 273.138 271.61 272.214 271.016 271.554C270.444 270.872 269.652 270.531 268.64 270.531C267.65 270.531 266.869 270.773 266.297 271.257C265.747 271.741 265.472 272.335 265.472 273.039V276.24C265.472 277.692 264.955 278.869 263.921 279.771C262.909 280.651 261.501 281.091 259.697 281.091C258.267 281.091 257.167 280.75 256.397 280.068C255.627 279.386 255.242 278.396 255.242 277.098C255.242 275.778 255.803 274.469 256.925 273.171C258.069 271.851 259.763 270.762 262.007 269.904C264.251 269.024 267.045 268.584 270.389 268.584C274.569 268.584 277.682 269.409 279.728 271.059C281.796 272.687 282.83 274.942 282.83 277.824V294.39C282.83 294.962 282.94 295.402 283.16 295.71C283.402 295.996 283.732 296.139 284.15 296.139C284.568 296.139 284.909 296.029 285.173 295.809C285.437 295.567 285.635 295.259 285.767 294.885C285.877 294.753 285.976 294.654 286.064 294.588C286.174 294.5 286.295 294.456 286.427 294.456C286.647 294.456 286.801 294.533 286.889 294.687C286.999 294.841 287.054 295.05 287.054 295.314C287.054 296.018 286.779 296.799 286.229 297.657C285.701 298.493 284.865 299.219 283.721 299.835C282.577 300.451 281.114 300.759 279.332 300.759C277.198 300.759 275.548 300.33 274.382 299.472C273.216 298.614 272.633 297.503 272.633 296.139ZM253.757 293.202C253.757 290.474 254.956 288.296 257.354 286.668C259.752 285.04 263.305 284.226 268.013 284.226C269.289 284.226 270.389 284.336 271.313 284.556C272.237 284.776 273.04 285.073 273.722 285.447L273.062 287.064C272.446 286.734 271.83 286.492 271.214 286.338C270.62 286.184 269.949 286.107 269.201 286.107C267.815 286.107 266.726 286.569 265.934 287.493C265.164 288.417 264.779 289.737 264.779 291.453C264.779 293.147 265.142 294.423 265.868 295.281C266.616 296.139 267.573 296.568 268.739 296.568C269.575 296.568 270.378 296.37 271.148 295.974C271.94 295.556 272.578 295.006 273.062 294.324L273.689 295.776C272.633 297.382 271.159 298.625 269.267 299.505C267.375 300.363 265.351 300.792 263.195 300.792C260.401 300.792 258.124 300.088 256.364 298.68C254.626 297.25 253.757 295.424 253.757 293.202Z" fill="white"/>
<path d="M302.5 282.477C302.5 279.397 302.929 276.823 303.787 274.755C304.667 272.687 305.811 271.147 307.219 270.135C308.649 269.101 310.167 268.584 311.773 268.584C313.797 268.584 315.348 269.189 316.426 270.399C317.504 271.609 318.043 273.413 318.043 275.811C318.043 278.055 317.559 279.727 316.591 280.827C315.623 281.905 314.391 282.444 312.895 282.444C311.399 282.444 310.288 282.059 309.562 281.289C308.836 280.497 308.451 279.375 308.407 277.923V276.702C308.385 276.086 308.242 275.624 307.978 275.316C307.736 274.986 307.329 274.821 306.757 274.821C306.163 274.821 305.613 275.085 305.107 275.613C304.601 276.141 304.194 276.966 303.886 278.088C303.578 279.188 303.424 280.618 303.424 282.378L302.5 282.477ZM302.962 270.432L303.424 278.946V295.413C303.424 295.941 303.523 296.348 303.721 296.634C303.919 296.898 304.293 297.085 304.843 297.195L307.747 297.69C308.143 297.778 308.429 297.921 308.605 298.119C308.803 298.295 308.902 298.548 308.902 298.878C308.902 299.23 308.77 299.505 308.506 299.703C308.264 299.901 307.901 300 307.417 300H290.818C290.312 300 289.938 299.901 289.696 299.703C289.476 299.505 289.366 299.23 289.366 298.878C289.366 298.636 289.443 298.416 289.597 298.218C289.751 298.02 289.993 297.866 290.323 297.756L291.511 297.426C291.863 297.316 292.105 297.129 292.237 296.865C292.391 296.601 292.468 296.183 292.468 295.611V275.712C292.468 275.272 292.402 274.953 292.27 274.755C292.138 274.535 291.918 274.392 291.61 274.326L290.125 274.227C289.839 274.161 289.619 274.051 289.465 273.897C289.333 273.721 289.267 273.501 289.267 273.237C289.267 272.951 289.355 272.72 289.531 272.544C289.729 272.346 290.048 272.17 290.488 272.016L298.804 269.508C299.684 269.178 300.322 268.969 300.718 268.881C301.114 268.771 301.433 268.716 301.675 268.716C302.071 268.716 302.368 268.859 302.566 269.145C302.764 269.409 302.896 269.838 302.962 270.432Z" fill="white"/>
<path d="M321.85 300C321.366 300 321.014 299.901 320.794 299.703C320.574 299.505 320.464 299.241 320.464 298.911C320.464 298.647 320.541 298.416 320.695 298.218C320.849 298.02 321.091 297.866 321.421 297.756L322.642 297.426C322.972 297.316 323.203 297.129 323.335 296.865C323.489 296.579 323.566 296.139 323.566 295.545V257.661C323.566 257.221 323.5 256.913 323.368 256.737C323.236 256.539 323.016 256.407 322.708 256.341L321.289 256.242C320.981 256.154 320.75 256.033 320.596 255.879C320.464 255.703 320.398 255.494 320.398 255.252C320.398 254.944 320.486 254.702 320.662 254.526C320.838 254.35 321.157 254.174 321.619 253.998L330.034 251.259C330.716 251.017 331.255 250.841 331.651 250.731C332.047 250.621 332.432 250.566 332.806 250.566C333.378 250.566 333.807 250.731 334.093 251.061C334.379 251.369 334.522 251.776 334.522 252.282V295.545C334.522 296.139 334.599 296.579 334.753 296.865C334.907 297.129 335.149 297.316 335.479 297.426L336.634 297.789C337.162 298.009 337.426 298.361 337.426 298.845C337.426 299.615 336.942 300 335.974 300H321.85ZM331.882 286.932L344.62 275.646C345.5 274.854 345.852 274.095 345.676 273.369C345.522 272.643 344.917 272.126 343.861 271.818L342.739 271.521C342.431 271.411 342.211 271.279 342.079 271.125C341.969 270.949 341.914 270.729 341.914 270.465C341.914 270.113 342.035 269.849 342.277 269.673C342.541 269.475 342.882 269.376 343.3 269.376H355.84C356.28 269.376 356.621 269.475 356.863 269.673C357.105 269.849 357.226 270.102 357.226 270.432C357.226 270.74 357.127 271.004 356.929 271.224C356.731 271.444 356.302 271.642 355.642 271.818C354.212 272.148 352.892 272.643 351.682 273.303C350.494 273.963 349.207 274.92 347.821 276.174L332.872 289.044L331.882 286.932ZM343.696 277.56L355.279 295.743C355.631 296.293 355.961 296.7 356.269 296.964C356.599 297.206 357.017 297.437 357.523 297.657C357.897 297.855 358.172 298.064 358.348 298.284C358.524 298.504 358.612 298.735 358.612 298.977C358.612 299.285 358.491 299.538 358.249 299.736C358.007 299.912 357.677 300 357.259 300H342.112C341.738 300 341.43 299.901 341.188 299.703C340.968 299.505 340.858 299.241 340.858 298.911C340.858 298.691 340.913 298.504 341.023 298.35C341.133 298.196 341.331 298.053 341.617 297.921L342.64 297.624C343.146 297.47 343.432 297.239 343.498 296.931C343.564 296.623 343.388 296.15 342.97 295.512L336.271 284.589L343.696 277.56Z" fill="white"/>
<path d="M390.4 281.421C390.4 282.323 390.147 283.027 389.641 283.533C389.135 284.039 388.387 284.292 387.397 284.292H367.135V282.213H378.223C379.081 282.213 379.51 281.795 379.51 280.959C379.51 277.593 379.07 275.129 378.19 273.567C377.31 272.005 376.21 271.224 374.89 271.224C373.878 271.224 372.976 271.587 372.184 272.313C371.414 273.017 370.798 274.106 370.336 275.58C369.896 277.054 369.676 278.924 369.676 281.19C369.676 285.502 370.622 288.692 372.514 290.76C374.406 292.806 376.925 293.829 380.071 293.829C382.029 293.829 383.712 293.422 385.12 292.608C386.55 291.772 387.573 290.573 388.189 289.011C388.497 288.681 388.739 288.461 388.915 288.351C389.113 288.219 389.311 288.153 389.509 288.153C389.751 288.153 389.938 288.274 390.07 288.516C390.202 288.758 390.268 289.066 390.268 289.44C390.224 291.508 389.575 293.411 388.321 295.149C387.067 296.865 385.362 298.24 383.206 299.274C381.072 300.286 378.619 300.792 375.847 300.792C372.745 300.792 369.984 300.154 367.564 298.878C365.144 297.58 363.241 295.776 361.855 293.466C360.469 291.134 359.776 288.428 359.776 285.348C359.776 281.982 360.436 279.045 361.756 276.537C363.076 274.029 364.968 272.071 367.432 270.663C369.918 269.255 372.877 268.551 376.309 268.551C379.301 268.551 381.842 269.112 383.932 270.234C386.022 271.334 387.617 272.852 388.717 274.788C389.839 276.724 390.4 278.935 390.4 281.421Z" fill="white"/>
<path d="M395.43 272.082L393.582 271.587C393.23 271.455 392.977 271.301 392.823 271.125C392.669 270.927 392.592 270.707 392.592 270.465C392.592 270.113 392.702 269.849 392.922 269.673C393.164 269.475 393.483 269.376 393.879 269.376H396.123C396.453 269.376 396.739 269.31 396.981 269.178C397.245 269.024 397.542 268.76 397.872 268.386L403.746 262.644C404.164 262.204 404.56 261.874 404.934 261.654C405.308 261.434 405.671 261.324 406.023 261.324C406.419 261.324 406.727 261.456 406.947 261.72C407.167 261.962 407.277 262.325 407.277 262.809V290.133C407.277 291.827 407.585 293.103 408.201 293.961C408.839 294.819 409.708 295.248 410.808 295.248C411.468 295.248 412.007 295.116 412.425 294.852C412.843 294.566 413.195 294.225 413.481 293.829C413.767 293.411 414.042 293.004 414.306 292.608C414.592 292.19 414.9 291.827 415.23 291.519C415.494 291.475 415.714 291.53 415.89 291.684C416.066 291.838 416.143 292.135 416.121 292.575C415.989 294.203 415.505 295.633 414.669 296.865C413.833 298.075 412.689 299.021 411.237 299.703C409.785 300.385 408.091 300.726 406.155 300.726C403.075 300.726 400.688 299.989 398.994 298.515C397.322 297.019 396.486 294.753 396.486 291.717V273.567C396.486 273.127 396.398 272.808 396.222 272.61C396.068 272.39 395.804 272.214 395.43 272.082ZM403.548 272.049L403.68 269.376H414.702C415.098 269.376 415.406 269.464 415.626 269.64C415.868 269.794 415.989 270.036 415.989 270.366C415.989 270.828 415.747 271.224 415.263 271.554C414.779 271.884 414.009 272.049 412.953 272.049H403.548Z" fill="white"/>
<path d="M432.846 270.3V295.545C432.846 296.139 432.912 296.579 433.044 296.865C433.198 297.129 433.44 297.316 433.77 297.426L434.991 297.756C435.321 297.866 435.563 298.02 435.717 298.218C435.871 298.416 435.948 298.647 435.948 298.911C435.948 299.241 435.827 299.505 435.585 299.703C435.365 299.901 435.002 300 434.496 300H420.207C419.723 300 419.36 299.901 419.118 299.703C418.898 299.505 418.788 299.241 418.788 298.911C418.788 298.647 418.854 298.427 418.986 298.251C419.14 298.053 419.382 297.888 419.712 297.756L420.966 297.426C421.296 297.316 421.527 297.129 421.659 296.865C421.813 296.579 421.89 296.139 421.89 295.545V275.712C421.89 275.272 421.813 274.953 421.659 274.755C421.527 274.557 421.318 274.436 421.032 274.392L419.613 274.26C419.305 274.194 419.074 274.084 418.92 273.93C418.788 273.754 418.722 273.534 418.722 273.27C418.722 272.984 418.81 272.753 418.986 272.577C419.162 272.401 419.47 272.225 419.91 272.049L428.358 269.31C429.062 269.046 429.612 268.87 430.008 268.782C430.404 268.672 430.756 268.617 431.064 268.617C431.658 268.617 432.098 268.782 432.384 269.112C432.692 269.42 432.846 269.816 432.846 270.3ZM426.873 265.02C424.915 265.02 423.353 264.492 422.187 263.436C421.021 262.38 420.438 261.016 420.438 259.344C420.438 257.672 421.021 256.319 422.187 255.285C423.375 254.229 424.937 253.701 426.873 253.701C428.831 253.701 430.404 254.229 431.592 255.285C432.78 256.319 433.374 257.672 433.374 259.344C433.374 261.016 432.78 262.38 431.592 263.436C430.404 264.492 428.831 265.02 426.873 265.02Z" fill="white"/>
<path d="M452.858 270.3V295.545C452.858 296.139 452.935 296.579 453.089 296.865C453.243 297.129 453.485 297.316 453.815 297.426L454.97 297.789C455.498 298.009 455.762 298.361 455.762 298.845C455.762 299.615 455.278 300 454.31 300H440.219C439.735 300 439.372 299.901 439.13 299.703C438.91 299.505 438.8 299.241 438.8 298.911C438.8 298.647 438.866 298.427 438.998 298.251C439.152 298.053 439.394 297.888 439.724 297.756L440.978 297.426C441.308 297.316 441.539 297.129 441.671 296.865C441.825 296.579 441.902 296.139 441.902 295.545V275.712C441.902 275.272 441.836 274.953 441.704 274.755C441.572 274.557 441.352 274.436 441.044 274.392L439.625 274.26C439.317 274.194 439.086 274.084 438.932 273.93C438.8 273.754 438.734 273.534 438.734 273.27C438.734 272.984 438.822 272.753 438.998 272.577C439.174 272.401 439.493 272.225 439.955 272.049L448.37 269.31C449.052 269.046 449.591 268.87 449.987 268.782C450.383 268.672 450.768 268.617 451.142 268.617C451.714 268.617 452.143 268.782 452.429 269.112C452.715 269.42 452.858 269.816 452.858 270.3ZM451.868 277.725L450.68 276.471L451.835 275.382C454.497 272.984 456.796 271.257 458.732 270.201C460.69 269.123 462.494 268.584 464.144 268.584C466.608 268.584 468.533 269.387 469.919 270.993C471.305 272.599 472.152 274.843 472.46 277.725L474.374 295.479C474.44 296.095 474.539 296.557 474.671 296.865C474.803 297.151 475.045 297.349 475.397 297.459L476.519 297.756C476.849 297.888 477.091 298.053 477.245 298.251C477.399 298.427 477.476 298.647 477.476 298.911C477.476 299.241 477.355 299.505 477.113 299.703C476.893 299.901 476.541 300 476.057 300H461.735C460.789 300 460.316 299.615 460.316 298.845C460.316 298.361 460.58 298.009 461.108 297.789L462.296 297.426C462.648 297.316 462.912 297.118 463.088 296.832C463.264 296.524 463.319 296.073 463.253 295.479L461.57 279.144C461.416 277.56 461.042 276.394 460.448 275.646C459.876 274.876 458.996 274.491 457.808 274.491C457.038 274.491 456.257 274.678 455.465 275.052C454.695 275.426 453.903 275.965 453.089 276.669L451.868 277.725Z" fill="white"/>
<path d="M500.659 296.7C504.025 297.14 506.676 297.723 508.612 298.449C510.57 299.175 511.967 300.11 512.803 301.254C513.639 302.42 514.057 303.861 514.057 305.577C514.057 308.679 512.44 311.22 509.206 313.2C505.994 315.18 501.363 316.17 495.313 316.17C491.221 316.17 487.965 315.873 485.545 315.279C483.147 314.685 481.431 313.86 480.397 312.804C479.363 311.748 478.846 310.527 478.846 309.141C478.846 307.425 479.616 305.995 481.156 304.851C482.696 303.707 485.413 302.915 489.307 302.475L489.538 303.201C488.68 303.421 488.009 303.828 487.525 304.422C487.063 305.038 486.832 305.709 486.832 306.435C486.832 308.613 487.591 310.351 489.109 311.649C490.649 312.969 493.157 313.629 496.633 313.629C498.613 313.629 500.197 313.464 501.385 313.134C502.573 312.826 503.431 312.353 503.959 311.715C504.509 311.077 504.784 310.285 504.784 309.339C504.784 308.547 504.487 307.865 503.893 307.293C503.321 306.743 502.298 306.248 500.824 305.808C499.372 305.39 497.348 304.983 494.752 304.587C491.672 304.125 489.285 303.619 487.591 303.069C485.897 302.519 484.709 301.848 484.027 301.056C483.367 300.286 483.037 299.318 483.037 298.152C483.037 297.074 483.334 296.095 483.928 295.215C484.544 294.313 485.556 293.565 486.964 292.971C488.372 292.355 490.308 291.959 492.772 291.783L493.102 292.245C492.64 292.399 492.277 292.608 492.013 292.872C491.771 293.136 491.65 293.444 491.65 293.796C491.65 294.148 491.826 294.467 492.178 294.753C492.552 295.039 493.377 295.336 494.653 295.644C495.929 295.952 497.931 296.304 500.659 296.7ZM500.923 271.29L501.715 269.442C502.727 267 503.992 265.141 505.51 263.865C507.05 262.567 508.777 261.918 510.691 261.918C512.275 261.918 513.529 262.358 514.453 263.238C515.377 264.118 515.839 265.328 515.839 266.868C515.839 268.232 515.498 269.321 514.816 270.135C514.134 270.927 513.199 271.323 512.011 271.323C511.219 271.323 510.592 271.136 510.13 270.762C509.668 270.388 509.261 269.959 508.909 269.475C508.557 268.969 508.172 268.529 507.754 268.155C507.358 267.781 506.83 267.594 506.17 267.594C505.444 267.594 504.828 267.88 504.322 268.452C503.838 269.002 503.299 269.97 502.705 271.356L500.923 271.29ZM511.582 280.2C511.582 282.642 510.911 284.809 509.569 286.701C508.227 288.571 506.346 290.034 503.926 291.09C501.506 292.146 498.69 292.674 495.478 292.674C492.244 292.674 489.461 292.168 487.129 291.156C484.797 290.144 483.004 288.769 481.75 287.031C480.496 285.293 479.869 283.368 479.869 281.256C479.869 278.792 480.529 276.614 481.849 274.722C483.191 272.83 485.094 271.345 487.558 270.267C490.022 269.189 492.937 268.65 496.303 268.65C499.537 268.65 502.287 269.178 504.553 270.234C506.841 271.268 508.579 272.665 509.767 274.425C510.977 276.163 511.582 278.088 511.582 280.2ZM494.29 270.993C493.388 271.081 492.651 271.521 492.079 272.313C491.529 273.083 491.166 274.194 490.99 275.646C490.836 277.076 490.902 278.825 491.188 280.893C491.474 282.983 491.892 284.743 492.442 286.173C493.014 287.581 493.696 288.626 494.488 289.308C495.28 289.99 496.138 290.287 497.062 290.199C498.426 290.067 499.383 289.165 499.933 287.493C500.505 285.799 500.571 283.401 500.131 280.299C499.713 277.153 498.987 274.777 497.953 273.171C496.919 271.565 495.698 270.839 494.29 270.993Z" fill="white"/>
<path d="M236.814 352.158C236.814 355.062 236.077 357.592 234.603 359.748C233.151 361.882 231.083 363.532 228.399 364.698C225.737 365.864 222.602 366.447 218.994 366.447C216.42 366.447 214.176 366.172 212.262 365.622C210.348 365.05 208.632 364.258 207.114 363.246L207.444 360.903C208.346 361.519 209.215 362.025 210.051 362.421C210.909 362.817 211.778 363.103 212.658 363.279C213.538 363.455 214.473 363.543 215.463 363.543C217.179 363.543 218.741 363.114 220.149 362.256C221.579 361.376 222.712 360.067 223.548 358.329C224.406 356.591 224.835 354.435 224.835 351.861C224.835 348.847 224.34 346.273 223.35 344.139C222.36 341.983 221.007 340.333 219.291 339.189C217.597 338.045 215.661 337.473 213.483 337.473H211.635V376.38C211.635 376.798 211.756 377.15 211.998 377.436C212.24 377.7 212.636 377.887 213.186 377.997L215.595 378.393C216.035 378.481 216.343 378.635 216.519 378.855C216.717 379.075 216.816 379.383 216.816 379.779C216.816 380.131 216.684 380.428 216.42 380.67C216.178 380.89 215.782 381 215.232 381H196.389C195.839 381 195.432 380.89 195.168 380.67C194.904 380.428 194.772 380.12 194.772 379.746C194.772 379.108 195.146 378.668 195.894 378.426L197.775 377.997C198.303 377.843 198.688 377.645 198.93 377.403C199.172 377.139 199.293 376.798 199.293 376.38V339.486C199.293 339.046 199.172 338.694 198.93 338.43C198.688 338.166 198.314 337.957 197.808 337.803L195.861 337.374C195.135 337.132 194.772 336.692 194.772 336.054C194.772 335.658 194.904 335.35 195.168 335.13C195.432 334.91 195.839 334.8 196.389 334.8H213.681C218.499 334.8 222.635 335.537 226.089 337.011C229.543 338.485 232.194 340.531 234.042 343.149C235.89 345.745 236.814 348.748 236.814 352.158Z" fill="white"/>
<path d="M256.352 349.584C259.696 349.584 262.633 350.266 265.163 351.63C267.715 352.994 269.706 354.897 271.136 357.339C272.566 359.759 273.281 362.575 273.281 365.787C273.281 368.845 272.533 371.584 271.037 374.004C269.563 376.402 267.528 378.305 264.932 379.713C262.336 381.099 259.322 381.792 255.89 381.792C252.546 381.792 249.598 381.11 247.046 379.746C244.516 378.382 242.536 376.49 241.106 374.07C239.698 371.628 238.994 368.823 238.994 365.655C238.994 362.575 239.731 359.825 241.205 357.405C242.679 354.985 244.714 353.082 247.31 351.696C249.928 350.288 252.942 349.584 256.352 349.584ZM258.464 379.053C259.608 378.877 260.499 378.239 261.137 377.139C261.797 376.039 262.182 374.466 262.292 372.42C262.424 370.374 262.226 367.844 261.698 364.83C261.214 361.838 260.576 359.385 259.784 357.471C259.014 355.557 258.123 354.171 257.111 353.313C256.099 352.455 254.999 352.125 253.811 352.323C252.667 352.499 251.765 353.148 251.105 354.27C250.467 355.37 250.093 356.943 249.983 358.989C249.895 361.013 250.104 363.532 250.61 366.546C251.094 369.516 251.732 371.969 252.524 373.905C253.316 375.819 254.207 377.205 255.197 378.063C256.209 378.921 257.298 379.251 258.464 379.053Z" fill="white"/>
<path d="M299.338 376.182L299.074 376.05V338.661C299.074 338.221 299.008 337.913 298.876 337.737C298.744 337.539 298.524 337.407 298.216 337.341L296.797 337.242C296.489 337.154 296.269 337.033 296.137 336.879C296.005 336.703 295.939 336.494 295.939 336.252C295.939 335.944 296.027 335.702 296.203 335.526C296.379 335.35 296.687 335.174 297.127 334.998L305.542 332.259C306.224 332.017 306.763 331.841 307.159 331.731C307.555 331.621 307.94 331.566 308.314 331.566C308.886 331.566 309.315 331.731 309.601 332.061C309.887 332.369 310.03 332.776 310.03 333.282V376.545C310.03 377.139 310.107 377.579 310.261 377.865C310.415 378.129 310.657 378.316 310.987 378.426L312.175 378.756C312.527 378.866 312.769 379.02 312.901 379.218C313.055 379.416 313.132 379.647 313.132 379.911C313.132 380.241 313.011 380.505 312.769 380.703C312.549 380.901 312.197 381 311.713 381H302.572C301.67 381 300.9 380.703 300.262 380.109C299.646 379.493 299.338 378.734 299.338 377.832V376.182ZM276.667 366.612C276.667 363.18 277.338 360.188 278.68 357.636C280.044 355.062 281.892 353.082 284.224 351.696C286.556 350.288 289.185 349.584 292.111 349.584C294.553 349.584 296.621 350.079 298.315 351.069C300.031 352.059 301.461 353.544 302.605 355.524L300.559 356.976C299.723 355.546 298.799 354.501 297.787 353.841C296.797 353.159 295.675 352.818 294.421 352.818C293.167 352.818 292.045 353.236 291.055 354.072C290.087 354.886 289.328 356.228 288.778 358.098C288.228 359.946 287.953 362.432 287.953 365.556C287.953 368.372 288.206 370.66 288.712 372.42C289.24 374.158 289.955 375.445 290.857 376.281C291.781 377.095 292.837 377.502 294.025 377.502C295.279 377.502 296.456 377.117 297.556 376.347C298.656 375.577 299.69 374.356 300.658 372.684L301.978 374.136C300.328 376.6 298.513 378.492 296.533 379.812C294.553 381.132 292.309 381.792 289.801 381.792C287.249 381.792 284.983 381.165 283.003 379.911C281.023 378.635 279.472 376.864 278.35 374.598C277.228 372.332 276.667 369.67 276.667 366.612Z" fill="white"/>
</g>
</g>
</g>
<defs>
<filter id="filter0_f_929_45" x="0" y="269.916" width="202.081" height="200.963" filterUnits="userSpaceOnUse" color-interpolation-filters="sRGB">
<feFlood flood-opacity="0" result="BackgroundImageFix"/>
<feBlend mode="normal" in="SourceGraphic" in2="BackgroundImageFix" result="shape"/>
<feGaussianBlur stdDeviation="17" result="effect1_foregroundBlur_929_45"/>
</filter>
<filter id="filter1_f_929_45" x="529.061" y="264.889" width="200.963" height="202.08" filterUnits="userSpaceOnUse" color-interpolation-filters="sRGB">
<feFlood flood-opacity="0" result="BackgroundImageFix"/>
<feBlend mode="normal" in="SourceGraphic" in2="BackgroundImageFix" result="shape"/>
<feGaussianBlur stdDeviation="17" result="effect1_foregroundBlur_929_45"/>
</filter>
<filter id="filter2_d_929_45" x="148" y="0" width="437" height="437" filterUnits="userSpaceOnUse" color-interpolation-filters="sRGB">
<feFlood flood-opacity="0" result="BackgroundImageFix"/>
<feColorMatrix in="SourceAlpha" type="matrix" values="0 0 0 0 0 0 0 0 0 0 0 0 0 0 0 0 0 0 127 0" result="hardAlpha"/>
<feOffset dy="4"/>
<feGaussianBlur stdDeviation="2"/>
<feComposite in2="hardAlpha" operator="out"/>
<feColorMatrix type="matrix" values="0 0 0 0 0 0 0 0 0 0 0 0 0 0 0 0 0 0 0.25 0"/>
<feBlend mode="normal" in2="BackgroundImageFix" result="effect1_dropShadow_929_45"/>
<feBlend mode="normal" in="SourceGraphic" in2="effect1_dropShadow_929_45" result="shape"/>
</filter>
<filter id="filter3_d_929_45" x="-48" y="-200" width="830" height="830" filterUnits="userSpaceOnUse" color-interpolation-filters="sRGB">
<feFlood flood-opacity="0" result="BackgroundImageFix"/>
<feColorMatrix in="SourceAlpha" type="matrix" values="0 0 0 0 0 0 0 0 0 0 0 0 0 0 0 0 0 0 127 0" result="hardAlpha"/>
<feOffset/>
<feGaussianBlur stdDeviation="45"/>
<feComposite in2="hardAlpha" operator="out"/>
<feColorMatrix type="matrix" values="0 0 0 0 0 0 0 0 0 0 0 0 0 0 0 0 0 0 0.25 0"/>
<feBlend mode="normal" in2="BackgroundImageFix" result="effect1_dropShadow_929_45"/>
<feBlend mode="normal" in="SourceGraphic" in2="effect1_dropShadow_929_45" result="shape"/>
</filter>
<filter id="filter4_d_929_45" x="2" y="-150" width="730" height="730" filterUnits="userSpaceOnUse" color-interpolation-filters="sRGB">
<feFlood flood-opacity="0" result="BackgroundImageFix"/>
<feColorMatrix in="SourceAlpha" type="matrix" values="0 0 0 0 0 0 0 0 0 0 0 0 0 0 0 0 0 0 127 0" result="hardAlpha"/>
<feOffset/>
<feGaussianBlur stdDeviation="45"/>
<feComposite in2="hardAlpha" operator="out"/>
<feColorMatrix type="matrix" values="0 0 0 0 0 0 0 0 0 0 0 0 0 0 0 0 0 0 0.25 0"/>
<feBlend mode="normal" in2="BackgroundImageFix" result="effect1_dropShadow_929_45"/>
<feBlend mode="normal" in="SourceGraphic" in2="effect1_dropShadow_929_45" result="shape"/>
</filter>
<filter id="filter5_d_929_45" x="52" y="-100" width="630" height="630" filterUnits="userSpaceOnUse" color-interpolation-filters="sRGB">
<feFlood flood-opacity="0" result="BackgroundImageFix"/>
<feColorMatrix in="SourceAlpha" type="matrix" values="0 0 0 0 0 0 0 0 0 0 0 0 0 0 0 0 0 0 127 0" result="hardAlpha"/>
<feOffset/>
<feGaussianBlur stdDeviation="45"/>
<feComposite in2="hardAlpha" operator="out"/>
<feColorMatrix type="matrix" values="0 0 0 0 0 0 0 0 0 0 0 0 0 0 0 0 0 0 0.25 0"/>
<feBlend mode="normal" in2="BackgroundImageFix" result="effect1_dropShadow_929_45"/>
<feBlend mode="normal" in="SourceGraphic" in2="effect1_dropShadow_929_45" result="shape"/>
</filter>
<filter id="filter6_d_929_45" x="102" y="-50" width="530" height="530" filterUnits="userSpaceOnUse" color-interpolation-filters="sRGB">
<feFlood flood-opacity="0" result="BackgroundImageFix"/>
<feColorMatrix in="SourceAlpha" type="matrix" values="0 0 0 0 0 0 0 0 0 0 0 0 0 0 0 0 0 0 127 0" result="hardAlpha"/>
<feOffset/>
<feGaussianBlur stdDeviation="45"/>
<feComposite in2="hardAlpha" operator="out"/>
<feColorMatrix type="matrix" values="0 0 0 0 0 0 0 0 0 0 0 0 0 0 0 0 0 0 0.25 0"/>
<feBlend mode="normal" in2="BackgroundImageFix" result="effect1_dropShadow_929_45"/>
<feBlend mode="normal" in="SourceGraphic" in2="effect1_dropShadow_929_45" result="shape"/>
</filter>
<filter id="filter7_d_929_45" x="152" y="0" width="430" height="430" filterUnits="userSpaceOnUse" color-interpolation-filters="sRGB">
<feFlood flood-opacity="0" result="BackgroundImageFix"/>
<feColorMatrix in="SourceAlpha" type="matrix" values="0 0 0 0 0 0 0 0 0 0 0 0 0 0 0 0 0 0 127 0" result="hardAlpha"/>
<feOffset/>
<feGaussianBlur stdDeviation="45"/>
<feComposite in2="hardAlpha" operator="out"/>
<feColorMatrix type="matrix" values="0 0 0 0 0 0 0 0 0 0 0 0 0 0 0 0 0 0 0.25 0"/>
<feBlend mode="normal" in2="BackgroundImageFix" result="effect1_dropShadow_929_45"/>
<feBlend mode="normal" in="SourceGraphic" in2="effect1_dropShadow_929_45" result="shape"/>
</filter>
<filter id="filter8_d_929_45" x="202" y="50" width="330" height="330" filterUnits="userSpaceOnUse" color-interpolation-filters="sRGB">
<feFlood flood-opacity="0" result="BackgroundImageFix"/>
<feColorMatrix in="SourceAlpha" type="matrix" values="0 0 0 0 0 0 0 0 0 0 0 0 0 0 0 0 0 0 127 0" result="hardAlpha"/>
<feOffset/>
<feGaussianBlur stdDeviation="45"/>
<feComposite in2="hardAlpha" operator="out"/>
<feColorMatrix type="matrix" values="0 0 0 0 0 0 0 0 0 0 0 0 0 0 0 0 0 0 0.25 0"/>
<feBlend mode="normal" in2="BackgroundImageFix" result="effect1_dropShadow_929_45"/>
<feBlend mode="normal" in="SourceGraphic" in2="effect1_dropShadow_929_45" result="shape"/>
</filter>
<filter id="filter9_d_929_45" x="292" y="140" width="150" height="150" filterUnits="userSpaceOnUse" color-interpolation-filters="sRGB">
<feFlood flood-opacity="0" result="BackgroundImageFix"/>
<feColorMatrix in="SourceAlpha" type="matrix" values="0 0 0 0 0 0 0 0 0 0 0 0 0 0 0 0 0 0 127 0" result="hardAlpha"/>
<feOffset/>
<feGaussianBlur stdDeviation="25"/>
<feComposite in2="hardAlpha" operator="out"/>
<feColorMatrix type="matrix" values="0 0 0 0 0 0 0 0 0 0 0 0 0 0 0 0 0 0 0.55 0"/>
<feBlend mode="normal" in2="BackgroundImageFix" result="effect1_dropShadow_929_45"/>
<feBlend mode="normal" in="SourceGraphic" in2="effect1_dropShadow_929_45" result="shape"/>
</filter>
<filter id="filter10_d_929_45" x="185.528" y="169.566" width="334.311" height="222.227" filterUnits="userSpaceOnUse" color-interpolation-filters="sRGB">
<feFlood flood-opacity="0" result="BackgroundImageFix"/>
<feColorMatrix in="SourceAlpha" type="matrix" values="0 0 0 0 0 0 0 0 0 0 0 0 0 0 0 0 0 0 127 0" result="hardAlpha"/>
<feOffset dy="4"/>
<feGaussianBlur stdDeviation="2"/>
<feComposite in2="hardAlpha" operator="out"/>
<feColorMatrix type="matrix" values="0 0 0 0 0 0 0 0 0 0 0 0 0 0 0 0 0 0 0.25 0"/>
<feBlend mode="normal" in2="BackgroundImageFix" result="effect1_dropShadow_929_45"/>
<feBlend mode="normal" in="SourceGraphic" in2="effect1_dropShadow_929_45" result="shape"/>
</filter>
<linearGradient id="paint0_linear_929_45" x1="158.025" y1="413.415" x2="68.6375" y2="322.911" gradientUnits="userSpaceOnUse">
<stop stop-color="#151555"/>
<stop offset="0.61" stop-color="#151555" stop-opacity="0.39"/>
<stop offset="1" stop-color="#151555" stop-opacity="0"/>
</linearGradient>
<linearGradient id="paint1_linear_929_45" x1="571.441" y1="416.767" x2="711.108" y2="329.615" gradientUnits="userSpaceOnUse">
<stop stop-color="#151555"/>
<stop offset="0.61" stop-color="#151555" stop-opacity="0.39"/>
<stop offset="1" stop-color="#151555" stop-opacity="0"/>
</linearGradient>
<clipPath id="clip0_929_45">
<rect x="152" width="429" height="429" rx="5" fill="white"/>
</clipPath>
</defs>
</svg>
